<svg width="94" height="78" viewBox="0 0 94 78" fill="none" xmlns="http://www.w3.org/2000/svg">
<path d="M27.8488 34.3783H8.26411C7.39841 34.3783 6.56817 34.6878 5.95604 35.2388C5.3439 35.7897 5 36.537 5 37.3161V69.6323C5 70.4115 5.3439 71.1587 5.95604 71.7097C6.56817 72.2606 7.39841 72.5701 8.26411 72.5701H27.8488M27.8488 34.3783V72.5701M27.8488 34.3783L44.1693 5C45.8839 5 47.5817 5.30396 49.1658 5.89452C50.7499 6.48508 52.1892 7.35067 53.4016 8.44188C54.614 9.53309 55.5757 10.8286 56.2319 12.2543C56.888 13.68 57.2257 15.2081 57.2257 16.7513V25.5648H82.4718C83.3974 25.5648 84.3125 25.742 85.1563 26.0846C86.0001 26.4272 86.7532 26.9274 87.3658 27.552C87.9785 28.1765 88.4365 28.9112 88.7095 29.7073C88.9826 30.5034 89.0644 31.3426 88.9496 32.1693L84.0534 67.4232C83.8561 68.8443 83.0889 70.1515 81.896 71.0993C80.7032 72.0471 79.1668 72.5701 77.5756 72.5701H27.8488" stroke="#2A2A44" stroke-width="10" stroke-linecap="round" stroke-linejoin="round"/>
</svg>
