<svg width="741" height="741" viewBox="0 0 741 741" fill="none" xmlns="http://www.w3.org/2000/svg">
<path fill-rule="evenodd" clip-rule="evenodd" d="M355.237 157.32C656.745 149.434 685.53 371.11 622.23 372.911C499.904 376.391 491.855 443.591 411.244 518.013C281.044 638.224 127.83 645.087 136.971 331.707C140.813 200.182 232.898 160.519 355.237 157.32Z" fill="#F5F2FD"/>
<path fill-rule="evenodd" clip-rule="evenodd" d="M564.48 402.236C651.602 382.781 668.365 421.942 650.08 426.053C614.744 433.998 619.559 446.277 594.936 465.919C559.001 494.585 517.542 483.361 507.816 447.426C501.338 423.485 529.13 410.13 564.48 402.236Z" fill="#F5F2FD"/>
<path d="M534.403 490.136C528.648 488.471 523.491 486.849 518.137 484.615C511.17 481.878 505.042 477.307 498.239 474.245C491.76 471.132 484.687 469.882 477.938 467.547C474.24 466.43 470.247 464.395 466.121 463.185C467.593 462.769 469.127 462.32 470.644 461.919C471.587 461.701 472.548 461.434 473.446 461.201C474.788 461.873 476.164 462.477 477.568 463.008C480.664 464.243 483.839 465.396 487.086 466.193C494.56 467.909 502.168 469.235 509.914 469.574C518.079 469.732 525.829 467.405 533.61 467.049C536.193 466.963 538.841 467.28 541.265 467.357C541.68 467.337 542.213 466.977 542.165 466.525C541.815 465.914 540.961 465.727 540.39 465.312C534.871 461.932 528.816 459.51 522.316 459.112C514.165 458.469 506.112 460.201 498.427 458.358C496.394 457.979 494.388 457.467 492.422 456.824C495.289 455.475 498.172 454.078 500.952 452.535C505.639 449.91 509.963 446.561 514.403 443.47C520.855 438.843 527.691 434.729 533.569 429.25C534.436 428.516 536.542 426.414 534.216 426.643C531.211 427.509 528.258 428.664 525.211 429.353C507.177 431.935 490.532 440.496 477.943 453.665C476.166 455.554 474.463 457.524 473.045 459.701C472.945 459.824 472.863 459.961 472.803 460.107C469.876 460.891 467.025 461.756 464.11 462.652C464.002 462.669 463.94 462.702 463.832 462.719C462.747 463.052 461.662 463.384 460.623 463.732C461.396 462.53 462.22 461.181 462.871 460.481C464.896 458.024 466.835 456.844 469.187 454.772C474.902 449.618 479.917 443.241 482.673 435.865C485.223 429.233 488.022 423.506 492.055 417.606C493.978 411.902 471.863 433.758 470.804 434.752C465.797 439.335 462.551 445.616 459.903 451.941C458.651 455.264 457.646 459.054 456.134 461.798C455.476 463.258 454.441 464.478 453.662 465.842C453.659 465.919 453.667 465.995 453.686 466.068C451.375 466.846 449.075 467.739 446.792 468.582C446.729 468.615 446.684 468.599 446.621 468.632C445.565 469.029 444.509 469.426 443.481 469.887C443.531 469.741 443.537 469.579 443.587 469.433C443.794 468.615 444.101 467.825 444.502 467.082C449.171 459.497 455.117 452.789 460.161 445.442C462.827 441.574 465.481 437.592 467.211 433.182C468.476 429.972 469.092 425.83 470.433 423.136C472.091 420.116 474.079 417.32 476.097 414.588C476.373 414.085 478.354 412.048 478.866 410.865C479.124 408.94 476.454 410.902 475.693 411.182C468.783 415.215 462.672 420.777 457.76 427.299C454.491 431.286 451.325 435.417 449.124 440.154C445.086 448.284 443.492 458.349 439.774 465.992C438.665 468.212 437.309 470.299 435.732 472.215C435.398 472.589 435.496 472.896 435.77 472.99C432.829 474.259 429.962 475.608 427.079 477.006C427.813 472.523 430.532 467.91 433.06 463.559C436.039 458.492 438.641 453.185 441.197 447.864C442.891 444.149 444.465 440.338 445.293 436.323C446.371 430.108 446.511 423.95 447.945 418.185C448.42 416.321 449.034 414.495 449.784 412.724C450.07 411.897 450.663 411.068 450.459 410.181C450.258 409.73 449.639 409.897 449.292 410.158C448.437 411.006 447.88 412.174 447.099 413.102C444.64 416.225 441.357 420.697 438.849 424.402C433.699 432.202 429.007 440.596 426.823 449.858C425.202 456.756 425.217 464.383 423.855 470.826C423.407 473.448 422.988 476.134 421.749 478.536C421.715 478.634 421.602 478.812 421.619 478.764C421.518 479.055 421.201 479.381 421.299 479.687C421.31 479.712 421.327 479.733 421.348 479.75C421.369 479.766 421.393 479.778 421.419 479.783C417.566 481.771 413.799 483.952 410.06 486.197C410.109 485.615 410.02 484.985 410.177 484.386C410.273 483.222 410.805 481.391 411.297 479.82C412.61 476.027 414.601 472.633 416.089 468.629C419.307 461.249 419.522 453.102 420.251 445.242C420.958 436.558 420.25 427.983 420.172 419.354C420.206 417.899 420.317 416.447 420.503 415.004L420.554 414.858C420.882 413.4 421.137 411.925 421.317 410.44C421.428 409.825 420.698 409.573 420.273 409.916C419.649 410.244 419.732 411.035 419.576 411.635C419.343 412.752 419.217 413.852 419.092 414.951C418.147 419.306 416.685 423.972 415.266 428.218C412.587 435.076 408.904 441.587 407.165 448.825C405.63 454.883 406.083 461.245 407.007 467.282C407.603 470.428 408.332 472.749 408.109 476.047C408.108 479.15 407.888 481.851 407.162 484.54C406.82 485.674 406.404 486.728 405.972 487.83C405.949 487.898 405.943 487.97 405.954 488.04C405.966 488.11 405.994 488.177 406.037 488.234C406.086 488.278 406.144 488.312 406.206 488.334C406.269 488.355 406.335 488.364 406.401 488.36C403.764 489.946 401.145 491.563 398.545 493.209C399.117 492.298 399.604 491.337 399.999 490.336C401.731 486.363 402.262 482.027 402.82 477.756C403.551 472.401 403.7 466.954 402.66 461.695C401.887 457.29 400.37 453.117 399.364 448.794C398.26 443.723 397.706 438.548 397.711 433.359C397.722 433.077 397.751 432.796 397.798 432.518C397.959 431.757 398.103 431.045 398.202 430.317C397.053 429.211 396.553 430.508 396.348 432.724C395.315 437.92 393.382 443.948 392.864 449.43C392.284 457.451 393.206 465.555 394.923 473.282C395.85 477.686 397.987 481.692 398.059 485.909C398.106 488.43 397.433 490.375 396.633 492.983C396.561 493.339 396.21 493.763 396.491 494.132L396.582 494.163C396.54 494.26 396.521 494.366 396.526 494.471C384.667 502.182 373.314 510.938 363.267 521.236C362.027 522.603 360.726 524.004 359.562 525.452C359.314 526.02 359.998 526.256 360.435 526.026C361.919 524.689 363.094 522.917 364.549 521.515C375.894 509.979 388.761 500.385 402.579 491.883C406.984 495.531 410.292 500.432 414.539 504.243C422.785 511.397 433.828 513.422 443.493 517.802C444.468 518.084 446.02 519.057 446.719 517.774C446.748 517.689 446.749 517.597 446.725 517.511C446.7 517.425 446.649 517.348 446.58 517.291C445.963 516.86 445.296 516.574 444.646 516.24C440.802 514.366 437.956 511.965 434.857 508.824C433.77 507.686 432.666 506.596 431.546 505.555C433.127 506.592 434.788 507.548 436.448 508.503C441.574 511.693 447.945 513.789 453.182 515.329C458.403 517.323 463.222 520.245 467.404 523.953C468.369 524.559 469.257 525.683 470.389 525.802C472.185 525.335 470.642 524.039 469.973 523.317C464.376 517.95 459.542 511.704 453.402 507.021C449.839 504.481 446.467 502.715 443.279 499.978C439.824 497.422 436.883 494.117 433.235 491.821C428.544 488.999 423.017 488.448 418.443 486.32C417.125 485.701 416.149 484.982 415.172 484.263C418.61 482.295 422.015 480.424 425.539 478.65L428.008 480.811C432.497 485.25 437.704 488.794 443.091 491.965C447.285 494.451 451.941 495.898 455.91 498.742C464.594 504.633 471.699 514.496 480.934 520.414C483.268 521.93 485.491 523.624 487.859 525.043C488.829 525.487 490.193 526.558 491.133 525.468C491.51 524.673 490.495 524.212 490.094 523.747C488.751 522.466 487.362 521.168 486.177 519.724C480.091 512.228 474.594 504.064 467.081 498.034C459.128 491.362 450.761 485.146 441.419 480.715C437.968 479.031 434.482 477.007 430.538 476.895C430.087 476.898 429.636 476.869 429.189 476.809C432.509 475.182 435.933 473.699 439.431 472.296C440.504 471.851 441.56 471.454 442.633 471.008C444.617 472.947 445.855 475.717 448.201 477.345C455.997 483.146 464.633 487.551 473.691 490.739C487.924 495.937 501.914 502.575 517.22 503.788C518.478 503.843 519.784 504.349 521.039 503.967C522.809 502.836 519.677 502.297 518.981 501.947C516.398 500.999 514.57 500.53 511.901 499.388C508.969 497.829 506.166 496.043 503.301 494.289C495.807 489.681 488.335 484.863 480.171 481.602C471.637 478.377 463.338 476.539 455.244 472.486C452.82 471.375 450.476 470.183 448.181 468.844C452.299 467.275 456.382 465.802 460.569 464.475C460.708 464.958 461.512 465.291 461.838 465.676C464.758 468.157 468.356 469.565 471.648 471.412C476.807 474.504 481.673 478.148 487.108 480.737C495.587 484.269 503.806 487.223 512.948 489.134C518.684 490.411 524.528 491.672 530.474 491.605C531.46 492.003 535.97 491.658 534.403 490.136ZM412.252 486.357C412.281 486.421 412.326 486.437 412.355 486.501C412.385 486.566 413.181 487.658 412.9 487.289C414.324 489.959 416.282 492.27 418.273 494.484C418.628 494.933 419 495.334 419.372 495.735C415.91 493.525 412.11 491.897 408.122 490.916C407.238 490.665 406.538 490.477 405.854 490.24C407.952 488.898 410.079 487.619 412.252 486.357Z" fill="url(#paint0_linear_44_3)"/>
<path d="M476.132 362.865C470.509 366.969 465.373 370.591 459.626 374.113C452.277 378.768 444.186 381.925 436.716 386.302C429.455 390.386 423.143 395.776 416.261 400.422C412.612 403.04 408.05 405.506 404.007 408.441C404.812 407.027 405.639 405.545 406.491 404.099C407.043 403.213 407.572 402.292 408.079 401.438C409.615 400.605 411.104 399.702 412.569 398.764C415.848 396.703 419.127 394.541 422.193 392.163C429.158 386.639 435.935 380.833 442.073 374.485C448.394 367.704 452.531 360.196 458.174 353.514C460.071 351.311 462.32 349.228 464.219 347.228C464.52 346.871 464.654 346.268 464.278 346.112C463.552 346.141 462.763 346.776 462.018 347.076C455.285 350.238 448.865 354.266 443.629 359.544C436.955 366.102 432.139 373.607 424.917 379.253C423.293 380.658 421.132 382.27 419.203 383.624C420.366 380.635 421.506 377.61 422.458 374.609C424.044 369.54 424.811 364.461 425.86 359.396C427.282 351.978 429.382 344.461 429.728 337.154C429.834 336.108 429.854 333.431 428.259 335.481C426.627 338.377 425.253 341.355 423.456 344.208C411.984 360.002 405.45 377.894 405.83 394.397C405.901 396.707 406.088 398.99 406.648 401.122C406.662 401.255 406.704 401.385 406.769 401.502C405.136 404.296 403.62 407.063 402.08 409.896C402.011 409.994 401.987 410.061 401.919 410.159C401.344 411.213 400.77 412.267 400.242 413.289C399.926 412.119 399.538 410.844 399.506 409.993C399.196 407.23 399.784 405.091 400.011 402.22C400.477 395.191 399.493 388.219 396.042 382.708C392.994 377.693 390.814 372.861 389.442 366.919C386.614 362.832 386.247 390.86 386.19 392.179C385.832 398.367 388.089 403.813 390.832 408.778C392.379 411.27 394.465 413.757 395.379 416.214C395.977 417.4 396.108 418.797 396.542 420.042C396.637 420.081 396.66 420.116 396.73 420.12C395.56 422.396 394.484 424.712 393.383 426.992C393.361 427.059 393.314 427.09 393.291 427.157C392.787 428.215 392.282 429.273 391.849 430.335C391.777 430.229 391.659 430.155 391.588 430.049C391.13 429.52 390.767 428.915 390.516 428.262C388.359 421.057 387.833 413.16 386.141 405.743C385.258 401.829 384.281 397.876 382.281 394.511C380.827 392.059 378.182 389.745 377.175 387.452C376.164 384.752 375.573 381.871 375.051 378.994C374.883 378.544 374.857 375.999 374.356 375.056C373.104 374.005 372.551 377.095 372.184 377.855C369.967 385.4 369.506 392.938 370.678 399.886C371.192 404.357 371.893 408.804 373.783 412.705C376.827 419.619 383.182 425.322 386.104 431.754C386.942 433.692 387.484 435.745 387.712 437.844C387.74 438.287 388.046 438.337 388.323 438.149C387.044 441.166 385.88 444.155 384.741 447.18C381.929 444.619 380.527 440.338 379.175 436.331C377.629 431.635 375.616 427.151 373.557 422.698C372.051 419.666 370.382 416.693 367.993 414.257C364.139 410.657 359.617 407.869 356.372 404.166C355.333 402.962 354.425 401.651 353.663 400.255C353.259 399.656 353.086 398.799 352.264 398.585C351.773 398.558 351.427 399.15 351.361 399.553C351.349 400.638 351.804 401.612 351.908 402.669C352.388 406.087 353.256 410.78 354.137 414.491C356.089 422.193 358.835 429.769 364.139 435.619C368.093 439.97 373.839 443.266 377.648 447.203C379.278 448.715 380.98 450.232 381.844 452.313C381.892 452.384 381.94 452.556 381.916 452.521C382.059 452.732 382.063 453.139 382.368 453.19C382.428 453.19 382.486 453.169 382.531 453.131C381.099 457.225 379.877 461.33 378.725 465.439C378.324 465.146 377.784 464.947 377.452 464.556C376.65 463.97 375.677 462.731 374.87 461.636C373.016 458.89 371.977 455.747 370.097 452.762C366.993 446.862 361.033 443.148 355.677 439.128C349.687 434.767 342.702 431.642 336.156 427.964C335.101 427.314 334.092 426.591 333.137 425.8L333.065 425.694C332.212 424.78 331.296 423.926 330.324 423.138C329.945 422.778 329.201 423.281 329.136 423.786C328.909 424.452 329.568 424.725 329.899 425.116C330.568 425.776 331.278 426.392 332.025 426.961C334.581 429.643 336.978 432.893 339.093 435.924C342.213 441.146 344.311 447.059 348.431 451.657C351.819 455.571 356.947 457.952 362.186 459.796C365.004 460.66 367.302 461.055 369.613 462.673C371.944 464.02 373.808 465.376 375.277 467.152C375.847 467.929 376.371 468.739 376.847 469.577C376.889 469.627 376.944 469.666 377.006 469.687C377.068 469.708 377.135 469.712 377.199 469.697C377.344 469.651 377.474 469.564 377.571 469.446C376.764 472.335 375.99 475.232 375.249 478.138C375.004 477.275 374.649 476.447 374.193 475.673C372.522 472.497 369.665 470.171 366.879 467.85C363.408 464.915 359.426 462.427 354.683 461.017C350.784 459.755 346.495 459.217 342.481 458.186C337.984 456.976 333.663 455.192 329.622 452.878C329.421 452.748 329.231 452.601 329.055 452.44C328.628 451.986 328.179 451.554 327.708 451.146C326.003 451.63 326.599 452.612 328.109 453.745C331.231 456.865 334.294 461.1 338.022 463.914C343.611 467.879 350.404 470.621 357.517 472.532C361.531 473.665 366.166 473.611 369.391 475.379C371.322 476.434 372.272 477.842 373.625 479.645C373.838 479.86 373.89 480.337 374.381 480.262L374.473 480.199C374.516 480.278 374.582 480.34 374.663 480.379C371.452 493.669 369.411 506.989 369.52 519.883C369.607 521.515 369.672 523.215 369.876 524.82C370.114 525.274 370.812 524.803 370.971 524.336C371.092 522.512 370.653 520.758 370.704 518.93C370.649 504.411 373.211 489.458 377.314 474.181C383.402 472.069 389.599 471.42 395.69 469.512C407.332 465.7 417.241 457.316 427.876 451.109C428.828 450.415 430.739 449.535 430.306 448.392C430.248 448.329 430.171 448.285 430.086 448.269C430.002 448.252 429.914 448.263 429.836 448.299C429.044 448.63 428.323 449.065 427.578 449.467C423.248 451.878 419.283 453.223 414.567 454.46C412.886 454.878 411.228 455.33 409.594 455.819C411.575 454.942 413.555 453.964 415.535 452.986C421.825 450.071 428.241 445.636 433.376 441.912C438.755 438.439 444.566 435.686 450.662 433.724C451.85 433.178 453.369 432.921 454.319 432.023C455.332 430.314 453.186 431.046 452.135 431.294C443.849 433.661 435.482 435.005 427.297 438.123C422.682 440.01 418.794 442.072 414.314 443.559C409.768 445.347 405.05 446.381 400.553 448.444C394.869 451.154 390.256 455.551 385.182 458.464C383.887 459.182 382.54 459.8 381.151 460.315C382.284 456.578 383.463 452.911 384.806 449.185L388.306 448.052C395.052 446.213 401.671 443.384 408.146 440.24C413.201 437.801 417.825 434.524 422.977 432.429C434.001 427.701 446.813 426.021 458.277 420.842C461.19 419.541 464.151 418.413 467.016 417.042C468.087 416.421 469.929 415.741 469.823 414.48C469.511 413.819 468.394 414.471 467.74 414.605C465.756 415.176 463.726 415.778 461.74 416.146C451.482 417.998 441.17 419.068 430.931 422.753C419.874 426.529 408.845 430.85 398.419 436.763C394.532 438.927 390.363 440.973 387.283 444.232C386.939 444.615 386.576 444.98 386.194 445.326C387.493 441.835 388.978 438.321 390.58 434.779C391.061 433.686 391.565 432.627 392.045 431.534C395.009 430.711 398.031 430.875 401.038 429.613C411.319 425.592 421.191 420.258 430.467 414.046C445.186 404.363 460.803 395.508 473.341 383.198C474.337 382.166 475.709 381.291 476.375 380.072C476.87 378.098 474.086 380.491 473.294 380.923C470.62 382.677 468.878 384.008 465.993 385.751C462.594 387.534 459.122 389.109 455.627 390.752C446.472 395.038 437.174 399.215 428.522 404.648C419.615 410.406 411.93 416.569 402.735 421.6C400.059 423.15 397.381 424.6 394.633 425.943C396.58 421.809 398.575 417.745 400.757 413.658C401.226 413.751 402.087 413.221 402.624 413.115C406.707 411.742 410.497 409.336 414.388 407.376C420.63 404.39 427.066 401.89 433.14 398.454C442.236 392.875 450.7 387.263 459.08 380.425C464.397 376.168 469.783 371.813 474.25 366.798C475.299 366.143 478.466 362.211 476.132 362.865ZM380.51 463.672C380.581 463.676 380.627 463.644 380.697 463.648C380.768 463.652 382.194 463.458 381.703 463.533C384.793 463.496 388.016 462.858 391.193 462.148C391.8 462.045 392.384 461.907 392.968 461.769C388.64 463.736 384.557 466.201 380.8 469.114C379.941 469.746 379.267 470.252 378.57 470.723C379.154 468.381 379.809 466.042 380.51 463.672Z" fill="url(#paint1_linear_44_3)"/>
<path d="M133.088 493.293C132.193 489.273 133.781 484.659 136.721 481.889L137.594 481.155C136.881 480.661 136.061 480.158 135.473 479.459C134.386 478.285 133.932 476.68 133.905 475.111C133.943 473.954 134.383 472.847 135.148 471.979C135.808 471.226 136.721 470.657 137.527 470.078C138.817 468.894 140.5 468.176 142.138 468.587C142.955 466.012 145.141 464.473 148.767 465.003C151.594 465.41 154.38 467.541 154.334 470.56C154.458 472.245 153.649 474.119 154.18 475.461C154.791 477.134 157.134 478.147 158.011 476.117C158.745 474.505 158.086 472.775 156.861 471.319C154.403 468.514 150.953 465.947 152.182 461.734C154.209 455.159 165.183 453.786 168.182 460.31C168.317 460.576 168.42 460.857 168.488 461.147C168.546 461.098 168.546 461.098 168.653 461.107C168.638 460.548 168.704 459.99 168.851 459.45C169.235 458.133 169.873 457 169.975 455.821C170.126 454.7 169.762 453.913 169.076 453.098C167.785 451.798 165.47 450.464 165.071 448.215C164.882 447.281 165.091 446.111 165.888 445.64C166.626 445.218 167.913 445.33 168.092 446.371C168.153 446.916 167.736 447.366 167.289 447.544C167.065 447.632 166.646 447.488 166.674 447.166C166.741 447.01 166.965 446.922 167.023 446.873L167.139 446.775C167.468 446.101 166.96 445.733 166.328 446.164C165.378 447.162 165.902 449.206 167.146 450.447C167.831 451.263 169.12 451.968 169.894 453.007C170.472 453.813 170.925 454.825 170.783 455.838C170.663 457.232 169.715 458.824 169.564 459.945C169.548 460.251 169.504 460.554 169.431 460.852C169.984 460.639 170.558 460.489 171.144 460.406C173.803 460.258 176.596 461.688 177.901 464.069C178.622 465.277 179.128 466.599 179.399 467.979C180.762 467.827 182.31 467.421 183.743 467.707C183.85 467.716 184.006 467.784 184.113 467.793C183.927 467.453 183.789 467.171 183.603 466.831C179.766 458.128 177.718 448.716 173.716 440.053C173.312 439.101 172.85 438.197 172.398 437.185C172.281 437.283 172.107 437.43 172.097 437.537C171.147 438.535 170.226 439.805 168.885 440.337C168.197 440.579 167.459 440.639 166.741 440.51C166.024 440.382 165.352 440.07 164.791 439.605C164.087 439.004 163.665 438.265 163.077 437.567C162.293 436.635 161.17 435.89 160.086 435.31C158.475 434.577 156.583 433.981 155.64 432.387C154.924 431.299 154.549 430.025 154.329 428.817C151.002 429.826 147.359 430.104 144.506 428.129C144.282 428.218 144 428.356 143.991 428.463C142.653 429.324 141.234 430.051 139.753 430.632C134.482 432.876 128.597 430.369 127.199 424.686C127.128 424.248 127.009 423.751 126.939 423.313C124.406 423.256 123.287 421.215 122.575 418.831C122.257 417.508 122.32 416.164 122.061 414.791C121.96 414.08 121.762 413.253 121.573 412.318C119.884 413.738 117.958 416.65 115.505 415.033C111.713 412.059 111.374 405.981 114.184 402.228C113.611 402.05 113.028 401.91 112.438 401.807C111.911 401.653 110.003 401.866 108.998 401.617C106.707 401.257 106.979 398.742 107.917 397.258C109.517 394.427 111.959 392.166 114.904 390.788C115.069 390.748 115.186 390.65 115.351 390.611C115.213 390.329 115.085 389.94 114.996 389.716C114.798 388.893 114.873 388.027 115.21 387.25C117.18 383.209 122.99 384.089 127.066 385.036C126.879 383.936 126.937 382.808 127.235 381.732C127.534 380.657 128.066 379.66 128.793 378.813C131.169 376.319 135.085 374.12 138.386 375.917C139.757 375.064 141.48 375.105 143.002 375.615C144.191 375.992 145.31 376.563 146.312 377.306C146.517 377.431 146.664 377.606 146.869 377.732C146.041 375.446 145.32 373.169 144.434 370.933C144.211 370.904 144.007 370.79 143.867 370.614C143.032 369.03 142.037 368.673 140.592 367.9C137.995 366.704 135.928 366.255 132.982 365.352C130.085 364.507 127.255 363.506 124.435 362.398C123.301 363.65 122.038 364.512 120.922 365.55C119.972 366.548 119.637 367.923 119.088 369.279C118.22 371.202 116.971 373.146 115.007 374.002C113.604 374.633 112.046 374.836 110.528 374.587C110.421 374.577 110.372 374.519 110.314 374.568C110.301 374.683 110.254 374.792 110.179 374.88C109.329 376.589 108.157 378.271 106.417 379.037C104.891 379.823 102.406 379.824 101.141 380.093C99.0478 380.56 97.6905 381.9 95.5212 382.631C93.6245 383.331 91.364 383.242 89.6251 382.121C88.0331 381.173 87.1863 379.101 87.7726 377.316C88.0064 376.644 88.3529 376.017 88.7972 375.461C88.1805 375 87.6105 374.481 87.0953 373.909C85.559 372.318 85.2178 370.021 86.6713 368.202C87.2722 367.498 88.3974 366.354 88.6675 365.729C89.7902 363.99 89.0597 361.82 89.4599 359.695C90.1577 356.623 92.5244 354.236 95.3345 352.967C94.1567 350.975 95.1122 348.682 96.0777 346.875C96.6179 345.626 96.5638 344.379 95.9736 343.086C95.2763 341.784 94.7167 340.763 95.6181 339.707C95.2078 339.456 94.8558 339.155 94.3966 338.845C92.9702 337.858 92.0069 335.884 92.6912 334.215C93.1056 333.171 93.9792 332.437 94.7456 331.693C95.637 330.666 96.2786 329.446 96.6201 328.129C96.9553 326.754 97.1435 325.204 98.2289 323.894C100.973 320.892 106.745 319.717 109.575 323.202C110.888 324.882 110.812 327.63 112.87 328.185C113.089 328.222 113.313 328.204 113.523 328.134C111.877 325.939 110.978 323.216 108.722 321.832C107.032 320.768 104.699 319.648 103.356 317.695C102.649 316.5 102.31 314.797 103.016 313.508C103.645 312.482 104.822 311.99 105.9 311.381L106.075 311.234C105.448 310.602 104.818 309.971 104.187 309.343L104.128 309.392C103.602 309.759 102.955 309.911 102.321 309.816C101.686 309.721 101.112 309.386 100.716 308.881C100.227 308.298 99.9819 308.007 99.4737 307.639C99.3553 307.543 99.2068 307.492 99.0543 307.495C98.3039 307.43 97.6911 307.647 96.7758 307.622C94.0281 307.546 93.4118 304.684 94.5131 302.566C94.8997 301.843 95.4822 301.353 96.1135 300.922C95.6728 300.398 95.1739 299.923 94.7334 299.398C94.6169 299.496 94.3931 299.585 94.2767 299.683C92.8974 300.644 92.4578 302.604 92.0763 304.515C91.7042 306.319 90.6703 308.281 88.783 308.874C86.2245 309.733 83.4228 308.411 81.8163 306.381C80.7483 304.992 80.1279 303.427 78.5755 302.644C78.0674 302.276 76.3799 301.806 75.5593 301.303C74.6214 300.779 73.9075 299.929 73.5519 298.915C73.3688 298.407 73.287 297.868 73.3111 297.328L73.1945 297.426C72.4457 298.277 71.9448 299.317 71.7463 300.433C71.586 301.661 72.1271 302.897 72.6471 303.751C73.5402 305.287 75.4101 307.393 74.0736 309.113C73.3468 310.022 72.1675 309.92 71.1351 309.993C71.0769 310.042 71.1351 309.993 71.2424 310.002C70.0049 309.949 68.9658 310.723 68.8341 311.63C68.7109 312.429 69.7341 312.463 70.4819 311.934L70.7148 311.738C70.871 311.806 70.3932 311.711 70.3443 311.652C70.0412 311.41 70.3906 311.116 70.7122 311.144C71.1994 311.132 71.873 311.46 71.554 312.027C71.1766 312.642 70.3984 312.899 69.7459 312.95C67.6811 313.096 67.5174 311.246 68.964 310.129C70.0707 309.198 71.9328 309.522 72.7018 309.372C74.2001 308.908 73.7727 306.981 73.008 305.834C71.7138 303.94 70.2424 301.598 71.2552 299.256C71.6603 298.319 72.1329 297.226 73.0952 296.715C73.0725 296.68 73.0423 296.651 73.0069 296.629C72.9714 296.607 72.9315 296.594 72.8902 296.589C72.1768 296.095 71.8737 295.853 71.1418 295.574C69.5312 294.84 66.7214 296.109 64.1669 295.672C61.5451 295.391 59.1281 292.752 59.8464 290.059C60.3747 288.323 61.8891 287.05 63.4734 286.215C61.4897 284.801 58.8399 284.842 56.7371 282.932C55.2497 281.399 57.9153 280.549 58.9849 280.048C59.8306 279.635 61.6083 278.439 63.0112 278.452C63.1766 278.413 63.3328 278.48 63.4982 278.44L63.4493 278.382C63.3394 277.779 63.2972 277.019 63.7234 276.462C65.4959 274.077 71.735 274.995 74.5298 277.019L74.4809 276.961C73.6915 275.489 73.456 273.782 73.8172 272.151C74.3917 270.595 75.4546 269.267 76.8468 268.366C78.2389 267.464 79.8856 267.037 81.5404 267.149L81.6477 267.159C81.1048 266.728 80.5857 266.269 80.0927 265.782C79.2508 265.03 78.3302 264.371 77.3467 263.816C73.9972 261.96 70.0095 261.237 66.979 258.815C66.2751 258.214 65.3049 256.942 66.188 256.1C66.9357 255.571 67.9403 255.82 68.798 255.894C70.5529 256.208 72.6573 256.227 74.272 255.666C76.2084 255.131 78.0838 254.052 80.1698 254.286C80.389 254.103 80.5729 253.881 80.7125 253.631C82.8244 251.06 86.3603 250.772 89.5062 250.611C91.678 250.475 93.449 249.982 95.1498 249.048C98.8335 247.045 102.267 243.562 106.7 243.513C107.687 243.512 108.66 243.752 109.533 244.214C110.407 244.676 111.154 245.344 111.709 246.161C113.052 248.113 112.635 251.047 110.243 251.866C107.363 252.697 105.954 249.011 103.574 248.427C103.311 248.35 102.511 248.227 102.122 248.355C101.607 248.538 101.128 248.807 100.703 249.151C100.121 249.64 99.6362 250.246 99.0141 250.57C99.161 250.745 99.2498 250.969 98.9982 251.379C98.1549 252.386 96.6939 252.422 95.615 253.031C94.2638 253.67 92.6726 255.206 91.5104 256.78C90.4739 258.148 89.6173 260.559 88.6601 262.257C87.8773 263.695 86.7926 264.946 85.4805 265.925C85.2351 266.114 84.9676 266.272 84.6839 266.396C84.6891 267.585 84.7525 268.724 84.7669 269.805C84.8251 269.756 84.9323 269.765 84.9905 269.716C85.487 269.546 85.9605 269.315 86.4001 269.028C87.7709 268.175 88.9628 266.874 90.5589 266.526C91.4933 266.337 92.5072 266.478 93.2695 267.03C93.9827 267.524 94.61 268.388 94.643 269.255C94.8347 270.784 93.9053 272.162 93.0926 273.442C92.706 274.164 92.4266 274.896 92.5457 275.393C92.7016 275.785 93.0032 276.101 93.3873 276.276C94.0213 276.439 94.7413 276.231 95.7828 276.051C95.9968 276.003 96.2166 275.986 96.4354 275.999L96.4725 275.571C96.5601 273.311 98.2187 271.617 100.479 271.705C105.194 271.52 108.646 279.054 102.62 280.045C101.743 280.185 100.76 280.316 99.9024 280.242C99.9913 280.819 100.049 281.401 100.076 281.985C100.401 282.153 100.692 282.38 100.936 282.653C101.728 283.478 101.792 284.617 101.699 285.689C101.568 287.229 100.844 288.657 99.6797 289.672C98.3402 290.798 96.7713 290.825 95.8028 292.037C95.386 292.487 95.2536 293.393 95.3632 293.997C95.5616 294.824 95.9162 295.72 95.9492 296.586C95.9909 297.146 95.9238 297.708 95.7517 298.243L97.2207 299.99L97.3954 299.843C98.5143 299.093 99.5936 298.285 100.629 297.423C102.685 295.495 103.993 293.502 105.131 290.954C105.401 290.329 105.671 289.705 105.883 289.129C103.653 284.94 107.875 283.577 107.643 279.399C107.601 278.519 107.497 277.644 107.329 276.78C106.699 275.953 106.317 274.965 106.226 273.93C106.172 272.683 106.488 271.522 106.094 270.462C105.758 269.353 105.091 268.324 105.193 267.144C105.234 265.42 107.249 265.216 108.557 265.707C111.084 266.466 113.138 268.318 114.521 270.436C115.423 271.864 116.044 273.43 116.168 275.115C116.158 275.222 116.207 275.28 116.149 275.329C116.767 275.209 117.366 275.007 117.929 274.727C118.037 274.736 119.017 274.011 119.504 273.999C120.246 273.927 120.992 274.105 121.62 274.506C123.185 275.776 123.651 277.868 124.468 279.667C125.835 282.594 127.183 285.734 126.73 289.097C126.702 289.419 126.625 289.682 126.597 290.004C127.445 289.96 128.294 290.051 129.112 290.276C130.263 290.699 131.405 291.23 132.189 292.162C132.514 292.697 132.697 293.308 132.718 293.934C132.739 294.56 132.599 295.181 132.311 295.737C131.471 297.339 130.119 297.978 129.043 299.181C127.627 300.57 127.686 303.005 126.447 304.842C125.576 306.171 124.5 307.374 123.13 308.227C123.013 308.325 122.79 308.414 122.673 308.512C122.771 308.628 122.811 308.794 122.909 308.91C123.175 309.581 123.48 310.418 123.744 310.495C124.641 310.734 126.137 309.676 127.628 309.913C129.968 310.331 131.78 312.486 131.897 314.873C131.877 316.977 130.473 318.854 129.592 320.289C129.315 320.708 129.094 321.161 128.936 321.637C132.066 322.285 134.975 323.618 137.381 325.77C138.877 327.196 140.561 328.961 140.638 331.182C140.492 333.492 138.013 334.681 136.881 336.527C136.378 337.348 136.2 338.79 136.486 339.841C136.887 341.875 137.571 343.843 138.519 345.687C139.571 347.885 140.944 350.109 140.78 352.634C140.714 353.463 140.479 354.271 140.089 355.005C140.021 355.162 139.895 355.367 139.828 355.523C141.057 358.167 142.237 360.754 143.35 363.496C145.221 368.086 146.819 372.707 148.466 377.386C148.593 377.402 148.722 377.395 148.846 377.364C152.254 377.281 156.787 379.834 155.8 383.745C155.621 384.784 155.241 385.778 154.682 386.672C154.624 386.72 154.557 386.877 154.499 386.926C155.364 387.526 156.138 388.248 156.797 389.069C158.327 391.361 158.584 394.624 157.241 397.046C156.945 397.507 156.618 397.948 156.262 398.365L156.03 398.561C156.69 400.292 157.35 402.023 158.067 403.706C161.076 403.264 161.923 405.336 163.664 407.052C164.506 407.935 165.452 408.233 166.132 407.86C167.095 407.349 167.197 406.17 166.824 405.489C165.942 404.44 163.973 404.108 162.519 403.442C161.318 402.96 160.155 402.049 159.614 400.814C159.091 399.37 159.02 397.8 159.41 396.314C159.791 394.403 162.139 389.746 164.537 390.116C164.752 389.233 165.215 388.43 165.87 387.8C167.986 385.823 171.451 385.097 174.019 386.615C174.742 387.002 175.455 387.496 175.887 388.127C176.362 388.943 176.651 389.853 176.736 390.793C176.793 390.949 176.797 391.12 176.748 391.28C177.089 391.266 177.431 391.277 177.771 391.314C179.311 391.61 181.372 392.759 182.474 393.126C183.791 393.51 185.235 393.688 186.348 394.541C189.076 396.721 189.257 400.247 187.652 403.186C187.391 403.704 187.081 404.163 186.83 404.573C188.645 405.432 190.403 406.34 192.219 407.2C195.725 409.123 197.498 411.707 196.041 414.821C198.993 416.912 201.066 421.034 199.152 424.433C197.284 427.295 193.43 428.149 191.403 430.35C190.511 431.299 189.668 432.306 188.54 432.857C187.606 433.237 186.591 433.372 185.59 433.249C185.473 433.347 185.348 433.552 185.231 433.65C184.125 434.581 182.566 434.5 181.248 434.116C179.239 433.618 177.857 431.5 176.255 430.659C175.787 430.457 175.076 430.557 174.619 430.842C173.715 431.304 172.851 431.931 171.859 432.169C173.097 434.707 174.327 437.351 175.449 439.986C179.402 448.591 181.342 457.993 185.296 466.598C186.556 469.515 188.388 472.05 190.417 474.818C190.54 474.018 190.77 473.228 191.313 472.573C192.399 471.263 193.769 470.41 194.483 469.013C195.508 467.158 195.332 464.821 196.669 463.1C198.975 460.168 203.616 460.84 206.052 463.264C207.411 464.408 207.826 465.848 207.911 467.367C210.494 465.593 213.176 463.935 216.282 463.61C218.902 463.296 222.218 464.286 223.291 466.863C223.7 469.004 222.188 470.871 221.329 472.687C220.691 473.82 220.375 474.98 220.106 476.199L220.214 476.209C222.465 476.404 224.774 476.55 227.054 476.423C229.323 476.403 231.912 475.817 234.022 477.026C235.467 477.799 236.234 479.539 235.51 481.043C233.917 484.469 229.334 485.639 225.817 485.711C222.038 485.708 219.075 485.614 216.096 488.218C215.155 489.109 213.701 490.927 212.469 492.062C210.994 493.501 209.364 494.872 207.449 495.786C207.246 495.844 207.055 495.937 206.885 496.061C209.617 499.43 212.341 502.906 214.84 506.47C215.174 506.985 215.615 507.509 215.89 508.073C215.969 508.404 215.571 508.639 215.24 508.719C214.256 508.85 213.911 507.848 213.48 507.216C212.284 505.438 210.922 503.701 209.609 502.021C205.24 496.351 200.628 490.983 196.317 485.264C192.603 480.136 188.441 475.186 185.241 469.724C184.493 470.254 183.657 470.559 182.958 471.147C181.919 471.921 180.573 473.749 180.55 475.259C180.248 477.501 180.852 479.876 181.785 481.576C182.727 483.17 183.841 484.022 185.468 483.948C185.79 483.976 186.538 483.446 186.302 483.048C186.057 482.757 185.901 482.689 185.414 482.701C185.141 482.732 184.905 482.333 185.187 482.195C185.469 482.058 185.733 482.135 186.005 482.104C187.224 482.372 187.716 483.549 186.472 484.198C185.394 484.806 183.97 484.413 182.934 483.891C180.745 482.352 179.798 479.57 179.641 477.019C179.501 475.819 179.682 474.603 180.167 473.497C180.652 472.391 181.423 471.433 182.4 470.723C183.089 470.243 183.77 469.87 184.508 469.447C183.075 469.161 181.519 469.675 179.726 469.79C179.347 469.811 178.976 469.725 178.596 469.746L178.694 469.862C178.89 470.095 179.508 471.066 179.618 471.67C180.528 474.881 176.87 475.968 174.376 476.077C171.766 476.283 169.365 475.319 167.236 476.215C166.423 476.491 165.671 476.921 165.02 477.481C165.792 477.926 166.621 478.322 167.393 478.767C169.873 480.061 172.335 481.571 173.738 484.068C175.436 486.915 176.328 490.34 175.455 493.559C174.997 495.734 173.721 497.999 171.484 498.886C169.713 499.38 168.522 498.791 167.708 497.587C168.183 501.462 167.462 506.044 164.688 508.774C162.68 510.76 159.561 512.488 156.76 511.166C155.469 510.583 154.385 509.623 153.65 508.413C152.806 506.935 152.546 505.563 151.285 504.536C150.367 503.916 149.442 503.999 148.34 503.633C147.665 503.364 147.062 502.944 146.575 502.406C146.088 501.868 145.731 501.225 145.53 500.527C145.372 499.866 145.262 499.262 145.161 498.551C144.334 498.75 143.449 498.997 142.407 499.177C140.314 499.644 138.739 497.887 137.039 496.93C136.023 496.194 133.622 495.23 133.088 493.293ZM114.47 360.239L114.586 360.141C114.859 360.111 115.043 359.857 115.178 359.544C115.628 358.763 115.956 357.917 116.152 357.036C116.456 355.389 116.292 353.538 115.332 352.159C114.371 350.78 112.889 350.436 111.412 351.28C110.391 351.84 108.513 352.325 108.812 353.863C109.628 355.662 111.591 356.696 112.64 358.299C112.956 358.668 113.229 359.072 113.454 359.503C113.738 359.959 113.906 360.515 114.47 360.239H114.47ZM111.582 311.872C112.211 310.847 113.853 309.963 114.485 309.532C115.193 308.837 115.686 308.124 115.917 307.333C113.563 305.833 110.365 305.341 108.175 305.691C106.967 305.911 106.28 306.985 105.603 307.953C107.344 309.67 109.077 311.494 110.76 313.259C110.96 312.757 111.237 312.289 111.582 311.872H111.582ZM104.971 312.758C103.135 314.004 103.692 316.914 105.452 318.416C106.891 319.891 109.622 320.776 111.247 322.59C112.285 323.706 112.817 325.048 113.679 326.311C113.866 326.651 114.307 327.175 114.542 327.574C114.761 327.409 114.942 327.199 115.075 326.96C115.207 326.72 115.288 326.455 115.311 326.182C115.335 325.909 115.301 325.635 115.212 325.376C115.122 325.117 114.98 324.879 114.793 324.679C114.55 324.37 114.239 324.121 113.884 323.952C114.076 324.293 114.19 324.672 114.22 325.062C114.277 325.218 114.281 325.389 114.231 325.549C114.048 325.803 113.404 325.747 113.432 325.426C113.35 324.5 112.8 323.373 111.9 322.539C110.832 321.15 107.195 320.133 107.689 317.53C107.889 316.467 108.499 315.656 109.257 315.02L109.723 314.628C108.783 313.628 107.843 312.629 106.953 311.688C106.332 312.012 105.554 312.269 104.971 312.758L104.971 312.758ZM76.2397 278.464C76.9396 280.361 76.7169 282.933 78.3089 283.881C78.7774 284.084 78.8636 283.713 78.7233 282.837C78.6507 281.805 78.0512 280.619 77.2678 279.687C76.9835 279.23 76.5824 278.872 76.2397 278.464ZM116.293 290.517C115.815 290.422 114.997 290.513 114.941 291.156C114.858 292.121 114.882 293.095 115.294 293.941C115.481 294.281 115.6 294.777 116.038 294.707L116.096 294.658C116.136 294.824 116.399 294.901 116.565 294.861C116.945 294.84 117.031 294.469 117.107 294.206C117.396 293.367 117.703 292.313 117.291 291.468C117.248 291.223 117.128 290.999 116.948 290.828C116.769 290.657 116.539 290.548 116.293 290.517ZM132.411 393.168C132.836 394.5 134.247 396.297 135.533 396.408C137.013 396.158 136.154 393.6 135.184 392.327C134.566 391.356 133.14 390.368 132.114 389.74C132.119 390.928 132.124 392.117 132.411 393.168ZM154.728 399.257C153.532 399.964 152.052 400.214 150.708 400.152C150.795 402.265 150.774 404.369 149.799 406.283C148.523 408.549 145.783 410.256 143.794 407.654C143.5 407.305 143.265 406.906 143.02 406.615C141.92 406.844 140.79 406.8 139.953 407.106C138.029 408.127 138.449 410.755 140.488 411.526C141.952 412.085 143.542 412.439 144.677 413.671C145.363 414.486 145.873 415.449 146.617 416.215L146.862 416.506L146.871 416.399C146.808 415.259 145.915 413.724 146.035 412.33C146.402 409.338 149.268 407.426 151.698 406.178C153.05 405.539 153.96 404.376 155.409 403.853C155.74 403.774 156.129 403.646 156.46 403.566C155.84 402 155.259 400.599 154.728 399.257ZM201.038 488.752C201.44 489.21 201.813 489.693 202.155 490.198L202.37 490.217C202.955 490.322 203.491 490.368 203.822 490.289C204.532 490.188 205.669 489.531 205.725 488.887C205.855 487.387 203.972 486.683 202.569 486.67C202.247 486.642 201.187 487.037 200.846 487.223C200.622 487.312 200.447 487.459 200.165 487.596C200.427 488.003 200.719 488.389 201.038 488.752V488.752Z" fill="url(#paint2_linear_44_3)"/>
<path fill-rule="evenodd" clip-rule="evenodd" d="M266.957 162.659C267.253 162.2 267.873 161.653 268.574 161.078C270.651 159.388 273.617 157.593 273.9 157.402C278.403 154.432 283.135 151.708 287.679 148.772C289.647 147.492 291.589 146.174 293.463 144.777C294.07 144.315 298.114 141.559 298.991 139.591C299.209 139.13 299.271 138.609 299.166 138.109C299.093 137.842 298.963 137.593 298.787 137.378C298.61 137.164 298.39 136.99 298.141 136.867C297.198 136.353 295.89 136.203 294.461 136.313C291.778 136.516 288.596 137.596 286.964 138.034C281.549 139.512 276.216 141.278 270.988 143.323C265.729 145.352 260.579 147.588 255.51 149.883C241.084 156.42 226.873 163.471 213.121 171.132C199.18 178.905 185.711 187.307 172.998 196.451C167.187 200.621 160.782 205.075 155.268 210.092C151.385 213.63 147.947 217.452 145.453 221.641C145.363 221.793 145.304 221.962 145.279 222.137C145.254 222.312 145.263 222.49 145.307 222.662C145.351 222.833 145.428 222.994 145.535 223.136C145.641 223.277 145.774 223.397 145.926 223.487C146.078 223.577 146.247 223.636 146.422 223.661C146.597 223.686 146.776 223.676 146.947 223.632C147.118 223.589 147.279 223.511 147.421 223.405C147.563 223.299 147.682 223.166 147.772 223.014C150.118 219.027 153.366 215.394 157.034 212.017C162.441 207.036 168.737 202.611 174.44 198.463C187.046 189.305 200.394 180.878 214.213 173.081C227.871 165.381 242.001 158.297 256.346 151.717C261.361 149.42 266.471 147.178 271.689 145.144C276.85 143.106 282.115 141.343 287.463 139.864C288.825 139.496 291.292 138.647 293.611 138.297C295.014 138.085 296.348 138.02 297.238 138.505C297.494 138.643 297.292 138.863 297.13 139.117C296.756 139.668 296.312 140.168 295.809 140.604C294.434 141.874 292.721 143.023 292.357 143.301C290.524 144.677 288.609 145.977 286.681 147.238C282.138 150.186 277.419 152.919 272.916 155.899C272.538 156.148 267.927 158.967 266.04 160.954C265.655 161.333 265.348 161.784 265.136 162.28C264.853 163.066 265.056 163.68 265.77 164.083C267.146 164.84 269.572 164.848 272.363 164.378C277.432 163.522 283.783 161.227 286.142 160.618C297.198 157.778 308.253 154.922 319.444 152.504C326.846 150.901 334.315 149.492 341.865 148.401C368.439 144.578 397.021 143.634 425.24 145.941C453.567 148.259 481.529 153.854 506.688 163.062C506.854 163.123 507.031 163.149 507.208 163.141C507.384 163.133 507.558 163.09 507.718 163.015C507.878 162.94 508.022 162.834 508.142 162.703C508.261 162.573 508.353 162.42 508.414 162.253C508.474 162.087 508.501 161.91 508.492 161.733C508.484 161.556 508.442 161.383 508.366 161.223C508.291 161.062 508.185 160.918 508.054 160.799C507.924 160.68 507.771 160.587 507.604 160.527C482.204 151.381 453.985 145.897 425.416 143.695C397.035 141.509 368.291 142.558 341.582 146.51C334.005 147.63 326.495 149.072 319.039 150.701C307.849 153.15 296.766 156.023 285.697 158.886C283.365 159.49 277.082 161.771 272.066 162.617C269.963 162.969 268.116 163.114 266.957 162.659ZM563.111 496.16C571.147 494.883 579.371 492.219 586.989 488.396C594.606 484.567 601.617 479.578 607.144 473.534C612.375 467.934 616.164 460.886 621.044 454.891C623.08 452.383 625.318 450.071 627.947 448.135C630.576 446.192 633.502 444.899 636.576 444.017C639.677 443.123 642.94 442.661 646.189 442.39C646.544 442.354 646.87 442.18 647.096 441.904C647.323 441.629 647.431 441.275 647.397 440.92C647.363 440.565 647.19 440.238 646.916 440.011C646.641 439.783 646.288 439.673 645.933 439.706C642.522 440.073 639.111 440.652 635.862 441.669C632.558 442.703 629.417 444.185 626.599 446.358C623.876 448.455 621.57 450.944 619.453 453.621C614.694 459.659 610.988 466.694 605.836 472.32C600.39 478.125 593.527 482.927 586.057 486.512C578.686 490.032 570.813 492.386 562.719 493.491C562.541 493.513 562.369 493.57 562.213 493.66C562.057 493.749 561.92 493.869 561.811 494.012C561.702 494.155 561.623 494.318 561.578 494.492C561.533 494.666 561.523 494.847 561.549 495.025C561.575 495.203 561.637 495.374 561.73 495.528C561.823 495.682 561.945 495.815 562.091 495.921C562.236 496.026 562.402 496.102 562.577 496.143C562.752 496.184 562.933 496.189 563.11 496.159L563.111 496.16Z" fill="#E3DBF9"/>
<path fill-rule="evenodd" clip-rule="evenodd" d="M341.939 377.896C355.469 411.684 401.911 465.367 443.635 465.36C503.904 465.364 568.421 307.532 568.421 307.532C592.781 290.944 577.868 267.912 566.861 248.601L550.092 289.993C550.092 289.993 477.544 391.46 446.275 386.89C415.002 382.328 379.853 264.106 362.465 262.605C345.076 261.105 328.413 344.099 341.939 377.896Z" fill="#FB9C9A"/>
<mask id="mask0_44_3" style="mask-type:luminance" maskUnits="userSpaceOnUse" x="336" y="248" width="246" height="218">
<path d="M341.939 377.896C355.469 411.684 401.911 465.367 443.635 465.36C503.904 465.364 568.421 307.532 568.421 307.532C592.781 290.944 577.868 267.912 566.861 248.601L550.092 289.993C550.092 289.993 477.544 391.46 446.275 386.89C415.002 382.328 379.853 264.106 362.465 262.605C345.076 261.105 328.413 344.099 341.939 377.896Z" fill="white"/>
</mask>
<g mask="url(#mask0_44_3)">
<path fill-rule="evenodd" clip-rule="evenodd" d="M518.139 294.045C486.253 252.903 467.189 194.251 413.596 175.946C375.994 163.101 342.194 182.535 320.891 213.616C287.725 262.016 277.006 331.465 296.245 387.084C323.871 466.943 417.412 493.921 490.986 462.883C513.784 453.263 536.448 438.855 549.081 416.903C558.519 400.504 567.431 368.078 550.834 352.396C545.36 347.222 536.138 349.402 531.446 343.436C527.874 338.905 529.626 332.873 527.55 327.813C524.166 319.513 511.344 317.664 503.511 318.661L518.139 294.045Z" fill="url(#paint3_linear_44_3)"/>
</g>
<path fill-rule="evenodd" clip-rule="evenodd" d="M336.544 420.923C355.843 397.454 385.264 296.568 370.219 268.256C355.174 239.944 275.399 209.759 246.271 251.051C220.673 287.335 239.377 380.755 254.422 409.067C267.395 433.492 318.976 442.287 336.544 420.923Z" fill="url(#paint4_linear_44_3)"/>
<path fill-rule="evenodd" clip-rule="evenodd" d="M330.398 294.782C329.383 292.095 327.342 289.921 324.725 288.738C322.107 287.555 319.127 287.46 316.439 288.474L164.322 345.886C162.992 346.389 161.774 347.149 160.737 348.122C159.701 349.095 158.866 350.263 158.281 351.559C157.696 352.855 157.372 354.253 157.327 355.674C157.282 357.095 157.518 358.511 158.021 359.841L247.799 597.71C248.812 600.397 250.85 602.571 253.466 603.754C256.082 604.938 259.061 605.034 261.748 604.022L413.866 546.609C416.552 545.594 418.726 543.553 419.909 540.936C421.093 538.319 421.188 535.339 420.176 532.651L330.398 294.782Z" fill="white"/>
<path fill-rule="evenodd" clip-rule="evenodd" d="M215.591 369.403C215.325 368.7 214.791 368.131 214.106 367.821C213.42 367.511 212.64 367.486 211.936 367.751L185.764 377.629C185.06 377.895 184.491 378.43 184.182 379.115C183.872 379.8 183.847 380.58 184.112 381.284L184.113 381.286C184.379 381.99 184.913 382.559 185.598 382.869C186.283 383.178 187.064 383.203 187.767 382.938L213.94 373.06C214.644 372.794 215.213 372.26 215.522 371.574C215.832 370.889 215.857 370.109 215.592 369.406L215.591 369.403ZM211.478 358.507C211.212 357.803 210.678 357.234 209.993 356.924C209.308 356.614 208.528 356.589 207.824 356.854L181.651 366.733C180.947 366.999 180.378 367.533 180.069 368.218C179.759 368.904 179.734 369.684 180 370.388V370.39C180.265 371.093 180.8 371.662 181.485 371.972C182.17 372.281 182.95 372.306 183.654 372.041L209.827 362.164C210.531 361.898 211.1 361.364 211.41 360.678C211.719 359.993 211.744 359.213 211.479 358.509L211.478 358.507Z" fill="#E3E3FE"/>
<path fill-rule="evenodd" clip-rule="evenodd" d="M329.945 293.58C329.502 292.408 328.833 291.334 327.976 290.42C327.118 289.506 326.089 288.77 324.947 288.254C323.805 287.738 322.572 287.452 321.32 287.412C320.067 287.373 318.819 287.58 317.646 288.023L163.127 346.342C161.954 346.784 160.88 347.453 159.966 348.311C159.052 349.168 158.316 350.197 157.8 351.339C157.284 352.481 156.997 353.713 156.957 354.966C156.918 356.219 157.125 357.467 157.567 358.639V358.641C158.01 359.814 158.679 360.888 159.537 361.802C160.394 362.716 161.423 363.452 162.565 363.968C163.708 364.484 164.94 364.77 166.193 364.809C167.445 364.849 168.694 364.642 169.866 364.199L324.385 305.88C325.558 305.438 326.632 304.769 327.546 303.911C328.46 303.054 329.196 302.025 329.712 300.883C330.229 299.741 330.515 298.508 330.555 297.256C330.595 296.003 330.387 294.755 329.945 293.582V293.58Z" fill="white"/>
<path fill-rule="evenodd" clip-rule="evenodd" d="M289.215 431.201C289.116 431.212 289.017 431.189 288.932 431.137C288.848 431.085 288.783 431.007 288.747 430.914L269.972 381.168C269.148 378.988 267.493 377.224 265.369 376.265C263.245 375.305 260.827 375.228 258.647 376.05L258.64 376.052C257.56 376.459 256.571 377.075 255.73 377.865C254.889 378.654 254.211 379.602 253.736 380.654C253.261 381.705 252.998 382.84 252.962 383.993C252.927 385.147 253.118 386.296 253.527 387.375L272.455 437.525V437.526L272.448 437.529L271.623 437.84C271.396 437.928 271.144 437.928 270.916 437.84C270.688 437.753 270.501 437.584 270.391 437.366C268.053 432.821 256.18 409.716 250.143 397.974C249.68 397.071 249.043 396.269 248.27 395.613C247.496 394.956 246.601 394.459 245.636 394.148C244.67 393.838 243.652 393.721 242.641 393.804C241.63 393.887 240.646 394.168 239.743 394.631C239.736 394.634 239.736 394.634 239.737 394.635C238.834 395.098 238.031 395.735 237.374 396.509C236.718 397.283 236.22 398.179 235.91 399.145C235.599 400.111 235.482 401.129 235.565 402.14C235.648 403.152 235.929 404.137 236.393 405.04C240.386 412.806 246.995 425.667 252.133 435.663C257.068 445.271 261.452 455.151 265.266 465.257C265.266 465.257 258.109 457.967 252.506 452.256C250.76 450.48 248.381 449.47 245.891 449.447C243.402 449.425 241.005 450.392 239.228 452.136V452.138C238.35 453 237.651 454.028 237.172 455.162C236.693 456.296 236.444 457.513 236.438 458.744C236.432 459.975 236.67 461.194 237.138 462.333C237.606 463.471 238.295 464.506 239.165 465.376C245.441 471.666 255.148 481.377 263.644 489.89C268.876 495.128 275.508 498.744 282.744 500.306C289.981 501.867 297.514 501.307 304.44 498.693C324.511 491.118 334.64 468.708 327.066 448.641L323.811 440.017C323.811 440.017 320.555 406.393 319.052 390.866C318.854 388.826 317.853 386.948 316.271 385.646C314.688 384.343 312.653 383.723 310.613 383.921V383.92C308.572 384.117 306.694 385.117 305.39 386.699C304.087 388.281 303.465 390.317 303.661 392.357C304.789 403.951 306.785 424.571 306.785 424.571L306.631 424.629C306.473 424.647 306.314 424.608 306.182 424.518C306.05 424.429 305.954 424.295 305.913 424.141C304.749 419.685 298.246 394.779 294.733 381.327C294.136 379.04 292.655 377.085 290.616 375.89C288.577 374.695 286.147 374.359 283.86 374.954L283.853 374.957C282.721 375.252 281.658 375.768 280.725 376.474C279.792 377.181 279.007 378.064 278.416 379.074C277.825 380.084 277.438 381.201 277.279 382.36C277.119 383.519 277.189 384.699 277.486 385.831C281.465 401.068 289.32 431.164 289.32 431.164L289.215 431.201Z" fill="url(#paint5_linear_44_3)"/>
<path fill-rule="evenodd" clip-rule="evenodd" d="M387.882 492.765L394.637 510.663C395.645 513.335 395.551 516.298 394.375 518.901C393.199 521.504 391.037 523.532 388.365 524.542L369.472 531.672L367.712 527.007L386.605 519.877C387.317 519.609 387.968 519.204 388.523 518.684C389.078 518.164 389.525 517.54 389.839 516.848C390.152 516.155 390.327 515.408 390.351 514.648C390.376 513.888 390.251 513.131 389.983 512.42L383.228 494.522L387.882 492.765ZM249.773 544.891L256.527 562.79C256.794 563.5 257.2 564.152 257.719 564.706C258.238 565.26 258.862 565.706 259.554 566.019C260.246 566.332 260.993 566.506 261.752 566.53C262.511 566.554 263.268 566.428 263.978 566.159L282.872 559.029L284.632 563.693L265.738 570.824C263.066 571.832 260.103 571.737 257.5 570.561C254.898 569.384 252.869 567.223 251.86 564.551L245.105 546.653L249.773 544.891ZM217.291 385.267L219.051 389.932L200.158 397.063C199.447 397.331 198.796 397.736 198.242 398.255C197.688 398.775 197.242 399.399 196.929 400.091C196.617 400.783 196.443 401.53 196.42 402.29C196.396 403.049 196.522 403.805 196.791 404.515L203.546 422.413L198.88 424.174L192.125 406.276C191.117 403.604 191.212 400.641 192.388 398.039C193.564 395.436 195.725 393.407 198.397 392.398L217.291 385.267ZM302.13 353.247L321.023 346.116C323.696 345.108 326.659 345.203 329.261 346.379C331.864 347.556 333.893 349.718 334.901 352.39L341.657 370.288L337.001 372.044L330.246 354.147C329.978 353.436 329.571 352.784 329.051 352.23C328.53 351.677 327.905 351.231 327.212 350.918C326.519 350.606 325.772 350.433 325.012 350.409C324.252 350.386 323.495 350.512 322.784 350.781L303.891 357.912L302.13 353.247Z" fill="#E3E3FE"/>
<path d="M262.688 526.187C263.595 525.845 264.428 525.902 265.186 526.357C266.088 526.894 266.875 528.053 267.547 529.833C268.217 531.608 268.382 533.004 268.063 534.012C267.802 534.842 267.213 535.431 266.306 535.772C265.885 535.945 265.43 536.015 264.977 535.977C264.524 535.939 264.086 535.793 263.701 535.552C262.867 535.064 262.122 533.916 261.442 532.114C260.775 530.347 260.601 528.959 260.92 527.951C261.192 527.118 261.781 526.53 262.688 526.187ZM263.251 527.679C263.036 527.759 262.855 527.912 262.74 528.11C262.616 528.391 262.577 528.702 262.627 529.004C262.683 529.515 262.913 530.323 263.329 531.425C263.745 532.526 264.085 533.262 264.349 533.632C264.625 533.999 264.86 534.224 265.086 534.294C265.3 534.368 265.532 534.363 265.742 534.28C265.954 534.202 266.131 534.051 266.243 533.854C266.376 533.576 266.415 533.262 266.354 532.959C266.311 532.449 266.071 531.648 265.655 530.546C265.239 529.445 264.9 528.709 264.635 528.339C264.37 527.968 264.124 527.746 263.908 527.669C263.695 527.595 263.462 527.598 263.251 527.679ZM269.977 523.437C270.884 523.094 271.716 523.151 272.475 523.606C273.376 524.143 274.163 525.302 274.835 527.082C275.505 528.858 275.681 530.249 275.363 531.257C275.091 532.091 274.502 532.68 273.594 533.022C273.174 533.194 272.718 533.263 272.265 533.225C271.813 533.186 271.375 533.041 270.989 532.802C270.167 532.309 269.411 531.165 268.731 529.364C268.064 527.596 267.89 526.209 268.219 525.197C268.48 524.367 269.07 523.779 269.977 523.437ZM270.54 524.928C270.327 525.005 270.149 525.157 270.039 525.355C269.907 525.635 269.864 525.948 269.916 526.253C269.972 526.764 270.213 527.568 270.629 528.67C271.045 529.771 271.384 530.507 271.649 530.877C271.914 531.248 272.159 531.469 272.375 531.543C272.589 531.614 272.821 531.609 273.032 531.529C273.243 531.449 273.419 531.298 273.532 531.103C273.664 530.823 273.707 530.509 273.654 530.204C273.601 529.698 273.372 528.893 272.956 527.791C272.54 526.69 272.2 525.954 271.936 525.584C271.66 525.217 271.425 524.991 271.198 524.918C270.984 524.842 270.75 524.845 270.539 524.928H270.54ZM282.385 529.521L280.593 530.197L278.034 523.417C277.602 524.288 276.983 525.054 276.221 525.658L275.605 524.026C276.085 523.614 276.491 523.123 276.805 522.574C277.178 522 277.376 521.329 277.374 520.644L278.828 520.095L282.385 529.521ZM288.963 527.038L287.16 527.718L284.601 520.938C284.169 521.81 283.55 522.575 282.788 523.18L282.172 521.547C282.653 521.136 283.058 520.645 283.372 520.096C283.745 519.521 283.943 518.85 283.942 518.165L285.405 517.613L288.963 527.038ZM295.53 524.559L293.727 525.24L291.168 518.46C290.736 519.331 290.117 520.096 289.356 520.701L288.739 519.068C289.221 518.654 289.631 518.162 289.95 517.613C290.316 517.037 290.51 516.368 290.509 515.686L291.972 515.134L295.53 524.559ZM297.699 512.973C298.606 512.631 299.439 512.687 300.197 513.143C301.099 513.68 301.886 514.839 302.558 516.619C303.228 518.394 303.404 519.786 303.085 520.794C302.813 521.628 302.224 522.216 301.317 522.559C300.896 522.73 300.441 522.8 299.988 522.762C299.535 522.723 299.098 522.578 298.712 522.339C297.89 521.846 297.133 520.702 296.453 518.9C295.786 517.133 295.612 515.746 295.942 514.734C296.203 513.904 296.792 513.316 297.699 512.973ZM298.262 514.465C298.05 514.544 297.873 514.695 297.762 514.892C297.628 515.17 297.589 515.484 297.65 515.786C297.694 516.301 297.935 517.105 298.351 518.207C298.767 519.308 299.107 520.043 299.371 520.414C299.636 520.785 299.882 521.006 300.097 521.081C300.311 521.153 300.543 521.148 300.753 521.067C300.969 520.988 301.15 520.835 301.265 520.637C301.388 520.356 301.427 520.045 301.376 519.742C301.323 519.235 301.094 518.431 300.678 517.329C300.262 516.228 299.922 515.492 299.657 515.121C299.393 514.751 299.147 514.529 298.919 514.456C298.706 514.379 298.473 514.382 298.262 514.465ZM304.999 510.218C305.906 509.876 306.738 509.933 307.497 510.388C308.399 510.925 309.175 512.088 309.847 513.868C310.517 515.644 310.692 517.035 310.374 518.043C310.113 518.873 309.523 519.462 308.616 519.803C308.196 519.976 307.74 520.046 307.287 520.008C306.834 519.969 306.397 519.824 306.011 519.583C305.178 519.094 304.433 517.946 303.753 516.145C303.086 514.378 302.912 512.99 303.23 511.982C303.502 511.149 304.081 510.565 304.999 510.218ZM305.562 511.71C305.346 511.79 305.165 511.943 305.05 512.141C304.927 512.422 304.888 512.733 304.938 513.035C304.994 513.546 305.224 514.354 305.64 515.456C306.055 516.557 306.395 517.293 306.66 517.664C306.925 518.034 307.17 518.255 307.397 518.325C307.61 518.399 307.843 518.394 308.053 518.311C308.265 518.233 308.442 518.082 308.553 517.885C308.686 517.607 308.725 517.293 308.664 516.99C308.622 516.48 308.382 515.679 307.966 514.577C307.55 513.476 307.21 512.741 306.945 512.37C306.681 511.999 306.435 511.777 306.218 511.7C306.005 511.626 305.773 511.629 305.562 511.71ZM312.287 507.468C313.194 507.125 314.027 507.182 314.785 507.637C315.687 508.174 316.474 509.333 317.146 511.113C317.816 512.889 317.992 514.28 317.673 515.288C317.402 516.122 316.812 516.711 315.905 517.053C315.485 517.226 315.029 517.296 314.576 517.258C314.123 517.219 313.685 517.074 313.3 516.833C312.478 516.34 311.721 515.197 311.041 513.395C310.374 511.628 310.2 510.24 310.53 509.228C310.791 508.398 311.38 507.81 312.287 507.468ZM312.85 508.959C312.637 509.036 312.459 509.188 312.35 509.387C312.217 509.666 312.174 509.98 312.227 510.284C312.282 510.795 312.512 511.603 312.928 512.705C313.344 513.806 313.684 514.542 313.96 514.909C314.224 515.28 314.47 515.501 314.686 515.576C314.9 515.647 315.132 515.642 315.342 515.562C315.553 515.482 315.73 515.331 315.842 515.136C315.975 514.856 316.018 514.542 315.965 514.237C315.911 513.73 315.682 512.925 315.267 511.824C314.851 510.722 314.511 509.987 314.235 509.62C313.97 509.25 313.735 509.024 313.508 508.951C313.295 508.874 313.061 508.877 312.85 508.959H312.85ZM324.695 513.552L322.903 514.228L320.344 507.448C319.912 508.319 319.293 509.085 318.531 509.689L317.915 508.057C318.396 507.646 318.802 507.155 319.115 506.605C319.484 506.029 319.681 505.359 319.685 504.675L321.138 504.126L324.695 513.552ZM331.263 511.073L329.471 511.749L326.911 504.969C326.479 505.841 325.861 506.606 325.099 507.211L324.483 505.578C324.963 505.167 325.369 504.676 325.682 504.127C326.056 503.552 326.253 502.881 326.252 502.196L327.706 501.648L331.263 511.073ZM337.84 508.59L336.037 509.271L333.478 502.491C333.046 503.362 332.427 504.127 331.666 504.732L331.049 503.1C331.53 502.688 331.936 502.197 332.249 501.648C332.622 501.073 332.82 500.403 332.819 499.718L334.282 499.165L337.84 508.59ZM344.408 506.112L342.605 506.792L340.046 500.012C339.614 500.883 338.995 501.649 338.233 502.254L337.617 500.621C338.101 500.209 338.511 499.716 338.828 499.165C339.194 498.589 339.388 497.921 339.387 497.239L340.85 496.686L344.408 506.112ZM346.577 494.526C347.495 494.179 348.317 494.24 349.075 494.695C349.977 495.232 350.764 496.391 351.436 498.171C352.106 499.947 352.282 501.339 351.963 502.347C351.691 503.18 351.113 503.765 350.195 504.111C349.774 504.283 349.319 504.352 348.866 504.314C348.413 504.276 347.976 504.131 347.59 503.891C346.767 503.399 346.011 502.255 345.331 500.453C344.664 498.686 344.49 497.298 344.82 496.286C345.081 495.457 345.67 494.868 346.577 494.526ZM347.14 496.017C346.928 496.096 346.751 496.248 346.64 496.445C346.506 496.723 346.467 497.036 346.528 497.338C346.572 497.853 346.813 498.657 347.229 499.759C347.645 500.86 347.985 501.596 348.249 501.967C348.514 502.337 348.76 502.558 348.975 502.633C349.189 502.705 349.421 502.7 349.632 502.619C349.847 502.539 350.028 502.387 350.143 502.188C350.266 501.907 350.305 501.596 350.254 501.294C350.201 500.787 349.972 499.982 349.556 498.88C349.14 497.779 348.8 497.044 348.535 496.673C348.271 496.302 348.025 496.08 347.797 496.008C347.584 495.931 347.351 495.935 347.14 496.017ZM353.876 491.771C354.783 491.429 355.616 491.485 356.375 491.94C357.276 492.478 358.063 493.636 358.735 495.416C359.405 497.192 359.57 498.588 359.252 499.596C358.991 500.426 358.401 501.014 357.494 501.356C357.074 501.529 356.618 501.599 356.165 501.56C355.712 501.522 355.275 501.376 354.889 501.135C354.056 500.647 353.31 499.499 352.63 497.697C351.964 495.93 351.789 494.543 352.108 493.535C352.38 492.701 352.969 492.113 353.876 491.771ZM354.439 493.262C354.224 493.342 354.043 493.495 353.928 493.694C353.805 493.975 353.766 494.285 353.816 494.587C353.871 495.098 354.102 495.907 354.517 497.008C354.933 498.11 355.273 498.845 355.538 499.216C355.803 499.586 356.048 499.807 356.275 499.878C356.488 499.952 356.721 499.947 356.931 499.864C357.143 499.785 357.32 499.634 357.431 499.438C357.564 499.159 357.603 498.845 357.542 498.543C357.499 498.032 357.259 497.231 356.844 496.13C356.428 495.028 356.088 494.293 355.823 493.922C355.559 493.551 355.312 493.329 355.096 493.253C354.883 493.178 354.65 493.182 354.439 493.262H354.439ZM361.165 489.02C362.072 488.678 362.905 488.734 363.663 489.19C364.565 489.727 365.352 490.885 366.024 492.665C366.694 494.441 366.87 495.833 366.551 496.841C366.279 497.675 365.69 498.263 364.783 498.605C364.362 498.778 363.907 498.849 363.454 498.81C363.001 498.772 362.563 498.626 362.178 498.385C361.355 497.893 360.599 496.749 359.919 494.947C359.252 493.18 359.078 491.793 359.408 490.781C359.669 489.951 360.258 489.362 361.165 489.02ZM361.728 490.512C361.515 490.589 361.337 490.741 361.228 490.939C361.095 491.218 361.052 491.532 361.105 491.837C361.16 492.348 361.39 493.156 361.806 494.257C362.222 495.359 362.573 496.09 362.838 496.461C363.102 496.832 363.348 497.052 363.563 497.128C363.777 497.202 364.01 497.197 364.22 497.114C364.432 497.037 364.61 496.885 364.72 496.688C364.852 496.408 364.895 496.094 364.842 495.789C364.788 495.282 364.559 494.477 364.144 493.376C363.728 492.274 363.388 491.539 363.112 491.172C362.848 490.802 362.602 490.579 362.385 490.503C362.172 490.426 361.939 490.429 361.728 490.512Z" fill="#20238C"/>
<path d="M273.549 550.234L271.746 550.914L269.187 544.134C268.755 545.006 268.136 545.771 267.374 546.376L266.758 544.743C267.238 544.332 267.644 543.841 267.958 543.292C268.331 542.717 268.529 542.046 268.528 541.361L269.991 540.809L273.549 550.234ZM280.117 547.755L278.314 548.436L275.754 541.656C275.324 542.524 274.709 543.288 273.953 543.894L273.336 542.261C273.815 541.848 274.22 541.357 274.536 540.81C274.906 540.235 275.101 539.566 275.095 538.883L276.559 538.33L280.117 547.755ZM286.684 545.277L284.881 545.957L282.322 539.177C281.891 540.045 281.276 540.809 280.52 541.415L279.904 539.782C280.382 539.369 280.788 538.879 281.103 538.331C281.472 537.754 281.67 537.085 281.673 536.401L283.127 535.852L286.684 545.277ZM288.863 533.687C289.77 533.344 290.603 533.401 291.362 533.856C292.253 534.397 293.039 535.556 293.711 537.336C294.381 539.112 294.557 540.504 294.239 541.511C293.978 542.342 293.388 542.93 292.481 543.271C292.059 543.444 291.602 543.514 291.147 543.476C290.693 543.439 290.253 543.294 289.865 543.055C289.043 542.563 288.297 541.415 287.617 539.613C286.95 537.846 286.776 536.459 287.095 535.451C287.356 534.621 287.945 534.033 288.863 533.687ZM289.426 535.178C289.211 535.258 289.03 535.411 288.915 535.61C288.782 535.887 288.742 536.201 288.803 536.503C288.858 537.014 289.089 537.822 289.504 538.924C289.92 540.025 290.26 540.761 290.525 541.132C290.79 541.502 291.035 541.723 291.251 541.799C291.469 541.869 291.704 541.863 291.918 541.78C292.128 541.7 292.305 541.549 292.418 541.354C292.541 541.073 292.58 540.762 292.529 540.459C292.475 539.953 292.246 539.148 291.831 538.046C291.415 536.945 291.075 536.209 290.81 535.839C290.545 535.468 290.299 535.246 290.083 535.169C289.87 535.097 289.638 535.1 289.426 535.178ZM296.152 530.936C297.059 530.594 297.892 530.65 298.65 531.105C299.552 531.642 300.339 532.801 301.011 534.581C301.681 536.357 301.857 537.749 301.527 538.761C301.266 539.591 300.677 540.179 299.77 540.521C299.349 540.693 298.894 540.764 298.441 540.725C297.988 540.687 297.55 540.541 297.165 540.3C296.342 539.808 295.586 538.664 294.906 536.862C294.239 535.095 294.065 533.708 294.384 532.7C294.656 531.866 295.245 531.278 296.152 530.936ZM296.715 532.427C296.502 532.505 296.324 532.656 296.215 532.855C296.082 533.134 296.039 533.448 296.092 533.752C296.147 534.263 296.377 535.072 296.793 536.173C297.209 537.275 297.549 538.01 297.814 538.381C298.089 538.747 298.324 538.972 298.55 539.043C298.764 539.117 298.996 539.112 299.206 539.029C299.419 538.952 299.597 538.8 299.707 538.602C299.84 538.324 299.879 538.01 299.818 537.708C299.775 537.197 299.546 536.392 299.13 535.291C298.714 534.189 298.364 533.458 298.099 533.086C297.834 532.715 297.588 532.493 297.372 532.417C297.158 532.343 296.926 532.346 296.715 532.427L296.715 532.427ZM303.44 528.185C304.347 527.842 305.18 527.899 305.938 528.354C306.84 528.892 307.626 530.05 308.299 531.83C308.969 533.606 309.144 534.998 308.826 536.005C308.554 536.84 307.965 537.428 307.057 537.77C306.637 537.942 306.181 538.011 305.728 537.973C305.276 537.935 304.838 537.79 304.453 537.55C303.63 537.057 302.874 535.914 302.194 534.112C301.527 532.345 301.353 530.957 301.682 529.945C301.944 529.116 302.534 528.527 303.44 528.185ZM304.003 529.676C303.791 529.755 303.613 529.907 303.502 530.104C303.369 530.381 303.329 530.695 303.39 530.997C303.435 531.512 303.676 532.316 304.091 533.418C304.507 534.519 304.847 535.255 305.112 535.626C305.377 535.997 305.622 536.217 305.838 536.293C306.051 536.365 306.284 536.36 306.494 536.279C306.709 536.199 306.89 536.047 307.006 535.848C307.129 535.567 307.168 535.256 307.117 534.953C307.063 534.447 306.834 533.642 306.418 532.54C306.003 531.439 305.663 530.703 305.398 530.333C305.133 529.962 304.887 529.74 304.66 529.668C304.447 529.591 304.214 529.594 304.003 529.677L304.003 529.676ZM315.86 534.265L314.057 534.945L311.498 528.165C311.066 529.037 310.447 529.802 309.685 530.407L309.069 528.774C309.549 528.363 309.955 527.872 310.268 527.323C310.642 526.748 310.839 526.077 310.838 525.392L312.302 524.84L315.86 534.265ZM322.428 531.786L320.625 532.467L318.066 525.687C317.634 526.558 317.015 527.323 316.253 527.928L315.637 526.296C316.117 525.884 316.523 525.393 316.836 524.844C317.21 524.269 317.408 523.599 317.406 522.914L318.87 522.361L322.428 531.786ZM328.994 529.308L327.191 529.988L324.632 523.208C324.202 524.076 323.587 524.84 322.83 525.446L322.214 523.814C322.693 523.4 323.098 522.91 323.414 522.362C323.784 521.788 323.978 521.118 323.973 520.435L325.436 519.883L328.994 529.308ZM335.562 526.829L333.759 527.51L331.2 520.729C330.769 521.598 330.154 522.361 329.398 522.967L328.782 521.335C329.26 520.922 329.666 520.431 329.982 519.883C330.35 519.307 330.548 518.637 330.551 517.953L332.005 517.405L335.562 526.829ZM337.741 515.239C338.648 514.897 339.481 514.953 340.24 515.408C341.141 515.946 341.917 517.108 342.589 518.889C343.259 520.664 343.435 522.056 343.116 523.064C342.855 523.894 342.266 524.482 341.359 524.824C340.937 524.996 340.48 525.066 340.025 525.029C339.571 524.991 339.131 524.847 338.743 524.608C337.921 524.115 337.175 522.967 336.495 521.165C335.828 519.398 335.654 518.011 335.973 517.003C336.245 516.17 336.823 515.586 337.741 515.239ZM338.304 516.731C338.089 516.811 337.908 516.963 337.793 517.162C337.669 517.443 337.63 517.753 337.681 518.056C337.736 518.567 337.966 519.375 338.382 520.476C338.798 521.578 339.138 522.313 339.403 522.684C339.667 523.055 339.913 523.275 340.139 523.346C340.353 523.42 340.586 523.415 340.796 523.332C341.006 523.252 341.183 523.101 341.296 522.906C341.429 522.628 341.468 522.314 341.407 522.011C341.364 521.5 341.124 520.7 340.709 519.598C340.293 518.497 339.953 517.761 339.688 517.39C339.423 517.02 339.177 516.798 338.961 516.721C338.747 516.649 338.515 516.652 338.304 516.731H338.304ZM345.03 512.488C345.937 512.146 346.769 512.202 347.528 512.658C348.43 513.195 349.216 514.353 349.889 516.133C350.559 517.909 350.735 519.301 350.405 520.313C350.144 521.143 349.554 521.731 348.648 522.073C348.227 522.246 347.772 522.316 347.318 522.278C346.865 522.239 346.428 522.094 346.043 521.853C345.22 521.36 344.464 520.216 343.784 518.414C343.117 516.648 342.943 515.26 343.261 514.252C343.533 513.419 344.123 512.831 345.03 512.488ZM345.593 513.98C345.38 514.057 345.202 514.209 345.093 514.407C344.96 514.686 344.917 515 344.969 515.305C345.025 515.816 345.255 516.624 345.671 517.726C346.087 518.827 346.427 519.562 346.702 519.93C346.967 520.3 347.202 520.526 347.428 520.597C347.642 520.671 347.874 520.666 348.084 520.583C348.297 520.506 348.475 520.355 348.584 520.157C348.717 519.877 348.76 519.563 348.707 519.258C348.653 518.751 348.424 517.946 348.009 516.845C347.593 515.743 347.253 515.008 346.977 514.64C346.713 514.27 346.466 514.048 346.25 513.971C346.037 513.896 345.804 513.899 345.593 513.98ZM357.438 518.573L355.646 519.249L353.087 512.469C352.652 513.339 352.034 514.103 351.274 514.71L350.658 513.078C351.138 512.666 351.544 512.175 351.858 511.626C352.226 511.05 352.424 510.38 352.428 509.696L353.881 509.147L357.438 518.573ZM364.005 516.094L362.213 516.77L359.654 509.99C359.222 510.861 358.603 511.627 357.841 512.232L357.225 510.599C357.706 510.188 358.112 509.697 358.425 509.148C358.798 508.573 358.996 507.902 358.995 507.217L360.448 506.669L364.005 516.094ZM366.185 504.504C367.092 504.162 367.925 504.218 368.683 504.673C369.585 505.21 370.372 506.369 371.044 508.149C371.714 509.925 371.89 511.317 371.56 512.329C371.299 513.159 370.71 513.747 369.803 514.089C369.382 514.261 368.927 514.332 368.474 514.293C368.021 514.255 367.583 514.109 367.198 513.868C366.375 513.376 365.619 512.232 364.939 510.43C364.272 508.663 364.098 507.276 364.417 506.268C364.689 505.434 365.278 504.846 366.185 504.504ZM366.748 505.995C366.535 506.072 366.357 506.224 366.248 506.423C366.115 506.702 366.072 507.016 366.125 507.32C366.18 507.831 366.411 508.64 366.826 509.741C367.242 510.843 367.582 511.578 367.847 511.949C368.122 512.315 368.357 512.54 368.583 512.611C368.797 512.685 369.03 512.68 369.24 512.597C369.453 512.52 369.63 512.368 369.74 512.17C369.873 511.891 369.915 511.577 369.862 511.272C369.809 510.765 369.569 509.964 369.153 508.863C368.737 507.762 368.397 507.026 368.133 506.656C367.868 506.285 367.622 506.063 367.406 505.986C367.192 505.912 366.959 505.915 366.748 505.995Z" fill="#20238C"/>
<path fill-rule="evenodd" clip-rule="evenodd" d="M307.266 485.699C305.127 487.032 302.723 487.884 300.222 488.195C300.036 488.216 299.855 488.274 299.691 488.365C299.527 488.456 299.383 488.579 299.267 488.726C299.151 488.873 299.065 489.042 299.015 489.223C298.965 489.403 298.951 489.592 298.974 489.778C298.998 489.964 299.058 490.144 299.151 490.307C299.244 490.469 299.369 490.612 299.518 490.726C299.667 490.84 299.837 490.923 300.018 490.971C300.199 491.019 300.388 491.03 300.574 491.004C303.482 490.643 306.276 489.653 308.762 488.102C309.078 487.902 309.302 487.586 309.385 487.222C309.468 486.857 309.404 486.475 309.207 486.158C309.009 485.841 308.694 485.615 308.331 485.529C307.967 485.443 307.584 485.504 307.266 485.699ZM315.662 474.372C314.896 476.816 313.72 479.113 312.184 481.163C312.072 481.312 311.99 481.481 311.944 481.662C311.897 481.842 311.886 482.03 311.912 482.214C311.938 482.399 312 482.576 312.095 482.737C312.189 482.897 312.314 483.037 312.463 483.15C312.612 483.262 312.781 483.343 312.962 483.39C313.142 483.437 313.33 483.447 313.514 483.421C313.699 483.395 313.876 483.333 314.037 483.239C314.197 483.144 314.337 483.019 314.45 482.87C316.171 480.562 317.493 477.981 318.36 475.234C318.47 474.878 318.435 474.492 318.262 474.162C318.089 473.831 317.793 473.582 317.438 473.468C317.083 473.354 316.697 473.386 316.364 473.555C316.032 473.724 315.779 474.018 315.662 474.372ZM293.526 487.789C291.037 487.182 288.667 486.158 286.519 484.76C286.202 484.558 285.818 484.489 285.45 484.57C285.083 484.65 284.762 484.874 284.559 485.191C284.357 485.507 284.288 485.892 284.369 486.259C284.449 486.627 284.673 486.947 284.99 487.15C287.407 488.708 290.066 489.855 292.858 490.546C293.223 490.634 293.607 490.573 293.928 490.377C294.248 490.181 294.478 489.866 294.566 489.502C294.655 489.137 294.595 488.752 294.4 488.431C294.205 488.11 293.891 487.88 293.526 487.79V487.789ZM316.357 459.855C316.855 462.406 317.035 465.009 316.894 467.604C316.873 467.979 317.002 468.347 317.253 468.627C317.503 468.907 317.854 469.076 318.229 469.097C318.604 469.119 318.972 468.991 319.253 468.741C319.533 468.491 319.703 468.14 319.725 467.766C319.877 464.935 319.677 462.096 319.129 459.315C319.095 459.131 319.025 458.956 318.924 458.799C318.822 458.642 318.69 458.508 318.535 458.402C318.381 458.297 318.207 458.224 318.024 458.186C317.841 458.148 317.653 458.147 317.469 458.183C317.286 458.219 317.112 458.291 316.956 458.394C316.801 458.498 316.667 458.631 316.564 458.787C316.46 458.942 316.389 459.117 316.353 459.3C316.318 459.484 316.319 459.672 316.357 459.855ZM281.23 480.35C279.448 478.455 277.91 476.345 276.65 474.07C276.56 473.907 276.44 473.764 276.295 473.648C276.15 473.532 275.984 473.446 275.806 473.395C275.627 473.343 275.441 473.328 275.257 473.349C275.072 473.37 274.894 473.427 274.732 473.517C274.404 473.7 274.161 474.005 274.057 474.366C273.953 474.727 273.996 475.114 274.177 475.444C275.547 477.925 277.222 480.225 279.163 482.291C279.42 482.564 279.774 482.724 280.149 482.736C280.524 482.748 280.888 482.611 281.161 482.355C281.433 482.096 281.592 481.741 281.604 481.366C281.617 480.992 281.483 480.627 281.23 480.35ZM310.458 446.453C312.007 448.546 313.304 450.815 314.321 453.212C314.393 453.383 314.499 453.538 314.631 453.668C314.763 453.798 314.92 453.901 315.092 453.971C315.265 454.04 315.449 454.075 315.634 454.074C315.82 454.072 316.004 454.034 316.175 453.962C316.346 453.889 316.501 453.784 316.631 453.652C316.761 453.519 316.864 453.362 316.934 453.19C317.003 453.018 317.038 452.834 317.037 452.648C317.035 452.463 316.997 452.279 316.925 452.108C315.819 449.505 314.414 447.039 312.738 444.761C312.511 444.466 312.177 444.273 311.809 444.222C311.441 444.171 311.067 444.267 310.768 444.488C310.47 444.71 310.27 445.04 310.212 445.407C310.155 445.775 310.243 446.15 310.459 446.453H310.458ZM273.927 467.676C273.158 465.189 272.688 462.62 272.526 460.022C272.515 459.836 272.468 459.655 272.387 459.488C272.306 459.321 272.193 459.171 272.054 459.048C271.915 458.924 271.753 458.829 271.577 458.769C271.402 458.708 271.216 458.682 271.031 458.693C270.845 458.704 270.664 458.751 270.497 458.832C270.329 458.913 270.18 459.027 270.056 459.166C269.933 459.304 269.838 459.466 269.777 459.642C269.716 459.817 269.691 460.003 269.702 460.189C269.874 463.014 270.384 465.808 271.222 468.511C271.336 468.87 271.587 469.17 271.92 469.344C272.254 469.518 272.643 469.554 273.003 469.442C273.18 469.387 273.344 469.298 273.486 469.179C273.629 469.061 273.746 468.915 273.832 468.751C273.918 468.587 273.97 468.407 273.987 468.222C274.003 468.038 273.982 467.852 273.926 467.675L273.927 467.676ZM299.184 437.389C301.559 438.387 303.766 439.745 305.728 441.414C305.87 441.533 306.035 441.623 306.212 441.679C306.389 441.735 306.576 441.756 306.761 441.74C306.946 441.723 307.126 441.671 307.291 441.585C307.456 441.499 307.602 441.382 307.722 441.24C307.841 441.097 307.931 440.933 307.987 440.756C308.043 440.579 308.064 440.392 308.048 440.207C308.031 440.022 307.979 439.842 307.893 439.677C307.807 439.512 307.69 439.366 307.548 439.246C305.363 437.397 302.912 435.89 300.276 434.775C299.929 434.63 299.539 434.629 299.192 434.772C298.844 434.915 298.568 435.189 298.423 435.536C298.279 435.883 298.277 436.272 298.42 436.62C298.563 436.967 298.838 437.244 299.184 437.389ZM272.929 453.123C273.362 450.59 274.187 448.139 275.374 445.859C275.463 445.694 275.518 445.514 275.536 445.328C275.554 445.142 275.536 444.955 275.482 444.776C275.427 444.597 275.338 444.431 275.219 444.287C275.1 444.143 274.954 444.024 274.789 443.937C274.624 443.85 274.443 443.796 274.257 443.779C274.071 443.762 273.883 443.782 273.705 443.837C273.527 443.893 273.361 443.983 273.218 444.103C273.075 444.223 272.957 444.371 272.871 444.536C271.551 447.078 270.628 449.806 270.134 452.627C270.069 452.997 270.154 453.378 270.369 453.686C270.585 453.994 270.914 454.204 271.284 454.27C271.654 454.335 272.035 454.251 272.344 454.036C272.652 453.822 272.863 453.493 272.929 453.123H272.929ZM285.014 436.969L285.219 436.89C287.581 436.004 290.104 435.635 292.62 435.808C292.992 435.828 293.357 435.7 293.635 435.453C293.914 435.205 294.084 434.858 294.108 434.487C294.132 434.115 294.009 433.749 293.766 433.467C293.522 433.186 293.177 433.011 292.806 432.982C289.979 432.789 287.143 433.185 284.478 434.146L284.219 434.24C281.737 435.178 279.463 436.593 277.524 438.404C277.25 438.661 277.088 439.015 277.075 439.391C277.061 439.766 277.198 440.131 277.454 440.406C277.71 440.681 278.065 440.842 278.44 440.856C278.816 440.869 279.181 440.732 279.455 440.476C281.071 438.967 282.956 437.777 285.013 436.968L285.014 436.969ZM301.122 475.506C300.752 475.695 300.371 475.864 299.982 476.011C295.788 477.594 291.172 476.48 287.609 473.557C287.466 473.44 287.301 473.351 287.123 473.298C286.946 473.244 286.759 473.226 286.575 473.244C286.39 473.262 286.211 473.317 286.047 473.404C285.884 473.492 285.739 473.61 285.621 473.754C285.504 473.897 285.416 474.062 285.362 474.24C285.308 474.418 285.29 474.604 285.308 474.789C285.326 474.973 285.381 475.152 285.468 475.316C285.556 475.479 285.674 475.624 285.818 475.742C290.171 479.324 295.84 480.601 300.982 478.66C301.468 478.477 301.943 478.267 302.405 478.03C302.573 477.947 302.722 477.832 302.845 477.691C302.968 477.549 303.061 477.385 303.12 477.208C303.179 477.03 303.202 476.842 303.188 476.656C303.174 476.469 303.123 476.287 303.039 476.121C302.954 475.954 302.837 475.805 302.694 475.684C302.552 475.563 302.387 475.471 302.208 475.414C302.03 475.357 301.843 475.336 301.656 475.352C301.47 475.368 301.288 475.42 301.122 475.507V475.506ZM306.496 456.912C306.58 457.112 306.659 457.314 306.734 457.517C308.55 462.33 308.061 467.382 305.775 471.125C305.678 471.284 305.614 471.46 305.585 471.644C305.556 471.828 305.564 472.015 305.608 472.196C305.652 472.377 305.731 472.547 305.841 472.697C305.95 472.848 306.089 472.975 306.248 473.072C306.406 473.168 306.583 473.233 306.767 473.262C306.95 473.29 307.138 473.282 307.319 473.238C307.5 473.195 307.67 473.115 307.82 473.006C307.97 472.896 308.098 472.758 308.194 472.599C310.894 468.174 311.533 462.206 309.385 456.517C309.296 456.281 309.208 456.045 309.103 455.817C309.032 455.645 308.927 455.488 308.796 455.356C308.664 455.224 308.507 455.12 308.335 455.048C308.162 454.977 307.978 454.941 307.791 454.942C307.605 454.942 307.42 454.98 307.248 455.052C307.076 455.124 306.92 455.23 306.789 455.363C306.658 455.495 306.555 455.653 306.485 455.826C306.415 455.999 306.38 456.184 306.382 456.37C306.384 456.557 306.423 456.741 306.496 456.912ZM283.478 468.375C283.179 467.798 282.914 467.203 282.686 466.594C281.045 462.245 281.294 457.7 283.038 454.101C283.202 453.763 283.225 453.374 283.102 453.019C282.979 452.664 282.719 452.372 282.381 452.209C282.043 452.045 281.654 452.022 281.299 452.145C280.944 452.268 280.652 452.528 280.488 452.866C278.428 457.11 278.1 462.467 280.035 467.594C280.301 468.302 280.609 468.994 280.955 469.666C281.128 469.997 281.425 470.246 281.781 470.359C282.137 470.472 282.523 470.44 282.855 470.27C283.188 470.099 283.439 469.805 283.556 469.451C283.673 469.096 283.645 468.709 283.478 468.375ZM289.295 448.157L289.447 448.098C294.027 446.369 299.113 447.857 302.769 451.414C303.04 451.672 303.401 451.814 303.775 451.807C304.149 451.8 304.505 451.646 304.766 451.378C305.027 451.11 305.171 450.75 305.168 450.376C305.164 450.002 305.013 449.644 304.747 449.381C300.344 445.109 294.234 443.391 288.705 445.353L288.447 445.448C287.468 445.817 286.534 446.294 285.661 446.871C285.506 446.974 285.373 447.106 285.269 447.261C285.165 447.415 285.093 447.589 285.056 447.771C285.02 447.953 285.019 448.141 285.055 448.324C285.091 448.507 285.162 448.68 285.265 448.835C285.368 448.99 285.501 449.124 285.655 449.227C285.81 449.331 285.983 449.403 286.166 449.44C286.348 449.477 286.536 449.477 286.719 449.442C286.901 449.406 287.075 449.334 287.23 449.231C287.879 448.802 288.571 448.441 289.295 448.157L289.295 448.157ZM297.47 461.951C296.702 462.374 295.905 462.74 295.084 463.048C294.067 463.438 293.016 463.731 291.944 463.923C291.761 463.954 291.585 464.021 291.428 464.12C291.27 464.219 291.134 464.348 291.026 464.5C290.919 464.651 290.842 464.823 290.801 465.004C290.76 465.185 290.754 465.373 290.786 465.556C290.817 465.74 290.884 465.915 290.983 466.073C291.082 466.23 291.211 466.366 291.362 466.474C291.514 466.581 291.686 466.658 291.867 466.699C292.048 466.741 292.236 466.746 292.419 466.715C293.67 466.491 294.897 466.15 296.084 465.696C297.034 465.34 297.956 464.915 298.844 464.426C299.173 464.244 299.415 463.938 299.518 463.577C299.622 463.217 299.577 462.829 299.395 462.501C299.213 462.173 298.908 461.93 298.547 461.827C298.186 461.724 297.799 461.768 297.47 461.95L297.47 461.951ZM294.008 461.19L294.335 461.063C296.365 460.298 298.287 459.935 299.573 460.056C299.759 460.075 299.947 460.057 300.126 460.003C300.305 459.949 300.472 459.86 300.616 459.742C300.761 459.623 300.88 459.477 300.968 459.311C301.056 459.146 301.11 458.965 301.127 458.779C301.145 458.593 301.125 458.405 301.07 458.226C301.014 458.048 300.924 457.882 300.804 457.738C300.683 457.595 300.536 457.477 300.37 457.39C300.204 457.304 300.023 457.252 299.836 457.236C298.288 457.093 295.995 457.443 293.571 458.327L293.336 458.414C291.225 459.211 289.445 460.246 288.286 461.244C288.143 461.365 288.026 461.513 287.941 461.679C287.856 461.846 287.804 462.028 287.79 462.214C287.775 462.401 287.798 462.588 287.856 462.766C287.914 462.944 288.007 463.108 288.129 463.25C288.252 463.391 288.401 463.507 288.568 463.591C288.735 463.675 288.917 463.724 289.104 463.737C289.291 463.75 289.478 463.726 289.655 463.666C289.832 463.606 289.996 463.512 290.137 463.388C291.034 462.614 292.403 461.828 294.008 461.19Z" fill="#6562F9"/>
<path fill-rule="evenodd" clip-rule="evenodd" d="M201.455 262.878C173.647 280.051 112.033 333.976 120.912 374.74C133.747 433.631 194.579 495.751 194.579 495.751C196.913 516.119 214.312 520.799 217.962 522.109C221.115 523.237 208.77 494.615 210.101 492.321C214.388 484.953 222.828 496.104 224.784 488.899C226.023 484.35 215.237 476.015 205.645 477.078C205.645 477.078 162.313 395.964 174.639 359.544C186.974 323.124 273.685 325.849 279.629 258.561C281.218 240.579 274.101 218.017 201.455 262.878Z" fill="#FB9C9A"/>
<mask id="mask1_44_3" style="mask-type:luminance" maskUnits="userSpaceOnUse" x="120" y="236" width="160" height="287">
<path d="M201.455 262.878C173.647 280.051 112.033 333.976 120.912 374.74C133.747 433.631 194.579 495.751 194.579 495.751C196.913 516.119 214.312 520.799 217.962 522.109C221.115 523.237 208.77 494.615 210.101 492.321C214.388 484.953 222.828 496.104 224.784 488.899C226.023 484.35 215.237 476.015 205.645 477.078C205.645 477.078 162.313 395.964 174.639 359.544C186.974 323.124 273.685 325.849 279.629 258.561C281.218 240.579 274.101 218.017 201.455 262.878Z" fill="white"/>
</mask>
<g mask="url(#mask1_44_3)">
<path fill-rule="evenodd" clip-rule="evenodd" d="M232.766 433.091C265.761 392.834 318.686 361.171 324.58 304.846C328.716 265.326 302.235 236.711 267.186 222.875C212.609 201.336 142.518 206.374 92.5895 237.531C20.901 282.269 15.4604 379.469 62.1229 444.27C76.584 464.349 95.6837 483.23 119.9 490.65C137.99 496.193 171.588 497.65 183.173 477.974C186.997 471.484 182.815 462.981 187.585 457.077C191.206 452.583 197.477 452.947 201.946 449.794C209.282 444.644 208.225 431.734 205.507 424.32L232.766 433.091Z" fill="url(#paint6_linear_44_3)"/>
</g>
<path fill-rule="evenodd" clip-rule="evenodd" d="M684.705 213.878C684.705 213.878 650.291 203.747 625.993 177.544C598.7 202.087 563.162 213.878 563.162 213.878V269.224C563.162 280.033 565.916 290.664 571.166 300.113C576.416 309.561 583.988 317.516 593.166 323.226C594.161 323.852 595.165 324.47 596.151 325.087C604.279 330.144 613.65 332.849 623.222 332.902C632.794 332.955 642.193 330.354 650.377 325.388C660.856 319.03 669.52 310.079 675.533 299.398C681.546 288.717 684.705 276.667 684.705 264.41V213.878Z" fill="url(#paint7_linear_44_3)"/>
<path fill-rule="evenodd" clip-rule="evenodd" d="M668.609 225.851C668.609 225.851 643.31 218.366 625.447 199.006C605.383 217.139 579.258 225.851 579.258 225.851V266.818C579.257 274.784 581.283 282.62 585.143 289.588C589.004 296.556 594.573 302.429 601.327 306.653C602.046 307.097 602.765 307.546 603.478 307.997C609.457 311.735 616.358 313.736 623.41 313.775C630.461 313.814 637.384 311.89 643.404 308.219H643.41C651.106 303.524 657.465 296.93 661.878 289.07C666.291 281.209 668.609 272.346 668.609 263.332V225.851Z" fill="white"/>
<path fill-rule="evenodd" clip-rule="evenodd" d="M598.855 269.437L615.574 291.837C616.97 293.703 619.099 294.752 621.312 294.669C622.432 294.616 623.521 294.292 624.488 293.726C625.456 293.16 626.272 292.369 626.866 291.419L658.091 243.082C660.305 239.648 659.515 234.927 656.315 232.543C653.115 230.159 648.731 231.015 646.504 234.448L620.664 274.45L609.851 259.964C607.426 256.704 602.986 256.178 599.955 258.792C596.91 261.406 596.431 266.177 598.855 269.437Z" fill="url(#paint8_linear_44_3)"/>
<path fill-rule="evenodd" clip-rule="evenodd" d="M557.176 268.407C558.191 262.683 561.444 256.832 563.367 256.16C576.205 251.695 583.002 264.527 569.769 268.506C563.367 270.433 556.955 286.958 556.955 286.958C556.955 286.958 556.407 272.797 557.176 268.407Z" fill="#FB9C9A"/>
<path fill-rule="evenodd" clip-rule="evenodd" d="M319.899 164.245C302.881 164.245 290.475 179.869 292.896 201.077C294.614 216.106 313.605 232.266 329.171 233.79C342.001 235.046 347.024 222.027 347.024 200.682C347.024 179.338 336.905 164.245 319.899 164.245Z" fill="url(#paint9_linear_44_3)"/>
<path fill-rule="evenodd" clip-rule="evenodd" d="M326.401 219.462C326.724 217.978 327.978 216.663 329.003 215.612C329.906 214.689 330.85 213.792 331.969 213.138C332.634 212.722 333.356 212.405 334.113 212.197C338.522 211.138 340.624 214.875 344.049 216.688C345.37 217.389 346.786 217.515 348.256 217.567C352.435 223.94 345.02 230.915 339.586 233.188C336.876 234.325 329.798 243.32 321.169 232.979C319.214 230.641 308.617 231.349 311.934 219.466C312.796 216.357 311.542 212.396 311.314 209.195C310.976 204.502 311.354 199.043 306.77 196.165C306.046 195.716 305.278 195.342 304.478 195.05C303.912 194.842 303.264 194.394 302.725 194.649C298.748 196.497 305.287 203.775 295.485 206.765C296.119 210.013 293.004 212.293 290.146 212.725C285.67 213.401 280.87 211.458 277.904 208.058C275.167 204.917 271.85 200.027 271.284 195.97C270.596 191.003 270.84 180.227 275.45 173.848C279.05 168.868 284.362 164.998 290.699 165.387C290.631 164.129 291.467 162.873 292.115 161.867C293.637 159.502 295.562 157.422 297.804 155.723C301.404 153.026 305.853 151.019 310.369 150.679C316.423 150.224 322.895 153.575 325.524 159.151C326.67 157.922 328.409 157.527 330 157.213C333.896 156.443 337.564 156.93 341.029 158.932C348.538 163.277 351.127 171.748 347.959 179.595C346.826 179.229 345.505 179.221 344.332 179.051C341.501 178.647 351.221 184.664 331.483 188.137C326.346 189.04 318.729 185.114 315.021 189.944C312.594 193.095 314.28 196.855 314.778 200.318C315.223 203.416 314.994 206.583 315.574 209.661C316.396 214.04 319.753 219.405 324.459 220.387L326.401 219.462Z" fill="url(#paint10_linear_44_3)"/>
<defs>
<linearGradient id="paint0_linear_44_3" x1="549.064" y1="385.095" x2="239.467" y2="639.507" gradientUnits="userSpaceOnUse">
<stop stop-color="#E3DBF9"/>
<stop offset="0.54" stop-color="#CCBBFA"/>
<stop offset="1" stop-color="#7848FC"/>
</linearGradient>
<linearGradient id="paint1_linear_44_3" x1="438.552" y1="358.033" x2="339.312" y2="519.012" gradientUnits="userSpaceOnUse">
<stop stop-color="#E3DBF9"/>
<stop offset="0.54" stop-color="#CCBBFA"/>
<stop offset="1" stop-color="#7848FC"/>
</linearGradient>
<linearGradient id="paint2_linear_44_3" x1="45.1145" y1="306.255" x2="315.11" y2="527.993" gradientUnits="userSpaceOnUse">
<stop stop-color="#E3DBF9"/>
<stop offset="0.56" stop-color="#CDBDFA"/>
<stop offset="1" stop-color="#7848FC"/>
</linearGradient>
<linearGradient id="paint3_linear_44_3" x1="417.9" y1="286.076" x2="434.999" y2="494.238" gradientUnits="userSpaceOnUse">
<stop stop-color="#272BAA"/>
<stop offset="0.45" stop-color="#1D2190"/>
<stop offset="1" stop-color="#050751"/>
</linearGradient>
<linearGradient id="paint4_linear_44_3" x1="321.942" y1="205.654" x2="276.813" y2="437.393" gradientUnits="userSpaceOnUse">
<stop stop-color="#3E42D3"/>
<stop offset="1" stop-color="#050751"/>
</linearGradient>
<linearGradient id="paint5_linear_44_3" x1="289.031" y1="370.744" x2="273.472" y2="517.885" gradientUnits="userSpaceOnUse">
<stop stop-color="#E3E3FE"/>
<stop offset="0.47" stop-color="#BBBBFE"/>
<stop offset="1" stop-color="#4F4FFF"/>
</linearGradient>
<linearGradient id="paint6_linear_44_3" x1="263.721" y1="225.815" x2="96.9256" y2="403.08" gradientUnits="userSpaceOnUse">
<stop stop-color="#292DB3"/>
<stop offset="0.56" stop-color="#22259F"/>
<stop offset="1" stop-color="#050751"/>
</linearGradient>
<linearGradient id="paint7_linear_44_3" x1="659.922" y1="179.076" x2="546.111" y2="392.874" gradientUnits="userSpaceOnUse">
<stop stop-color="#AADBFF"/>
<stop offset="0.6" stop-color="#91D1FF"/>
<stop offset="0.81" stop-color="#5AB9FF"/>
<stop offset="1" stop-color="#22A1FF"/>
</linearGradient>
<linearGradient id="paint8_linear_44_3" x1="652.458" y1="212.752" x2="581.601" y2="329.281" gradientUnits="userSpaceOnUse">
<stop stop-color="#AADBFF"/>
<stop offset="0.47" stop-color="#85CBFF"/>
<stop offset="1" stop-color="#22A1FF"/>
</linearGradient>
<linearGradient id="paint9_linear_44_3" x1="340.964" y1="170.455" x2="294.845" y2="240.934" gradientUnits="userSpaceOnUse">
<stop stop-color="#FB9C9A"/>
<stop offset="0.64" stop-color="#FC8886"/>
<stop offset="0.84" stop-color="#FD5450"/>
<stop offset="1" stop-color="#FF1712"/>
</linearGradient>
<linearGradient id="paint10_linear_44_3" x1="327.228" y1="235.429" x2="298.649" y2="144.989" gradientUnits="userSpaceOnUse">
<stop/>
<stop offset="0.53" stop-color="#121212"/>
<stop offset="1" stop-color="#4D4D4D"/>
</linearGradient>
</defs>
</svg>
